<?xml version="1.0" encoding="UTF-8"?>
<svg version="1.1" xmlns="http://www.w3.org/2000/svg" width="512" height="512">
<path d="M0 0 C1.68359375 2.02734375 1.68359375 2.02734375 2.18359375 5.02734375 C1.56420369 8.7436841 0.51104115 9.61255411 -2.31640625 12.02734375 C-4.66870117 13.20898437 -4.66870117 13.20898437 -7.296875 14.18359375 C-8.77619507 14.74771973 -8.77619507 14.74771973 -10.28540039 15.32324219 C-11.87856079 15.91927246 -11.87856079 15.91927246 -13.50390625 16.52734375 C-53.6708649 32.13080818 -90.01835167 54.8125876 -123.31640625 82.02734375 C-121.94021502 85.11665101 -120.36622303 87.22536625 -117.9764204 89.60783863 C-117.28232608 90.30468165 -116.58823176 91.00152467 -115.87310427 91.71948415 C-115.10804184 92.47735666 -114.34297942 93.23522916 -113.55473328 94.0160675 C-112.74392534 94.82717316 -111.9331174 95.63827882 -111.09773952 96.47396344 C-108.84658886 98.72396457 -106.59100861 100.96941386 -104.33351529 103.21304786 C-101.89965835 105.63416004 -99.47160116 108.06107591 -97.0428772 110.48733521 C-92.83297198 114.69146517 -88.61953081 118.89202415 -84.4037838 123.09029579 C-78.30206169 129.1669111 -72.20682211 135.24999595 -66.11334 141.33487286 C-56.2184644 151.21560988 -46.31986373 161.0926055 -36.41821289 170.96655273 C-35.82552311 171.55758689 -35.23283332 172.14862106 -34.62218324 172.75756534 C-29.81477277 177.55149062 -25.007182 182.34523507 -20.19957733 187.13896561 C-16.00153965 191.32490113 -11.80357193 195.5109068 -7.60571289 199.69702148 C-7.01465323 200.28642489 -6.42359358 200.87582829 -5.81462302 201.4830924 C4.04612036 211.31644827 13.90292546 221.15374269 23.75693387 230.99384755 C29.83363434 237.06159258 35.9138656 243.12575798 41.99871113 249.18533518 C46.17006887 253.33981945 50.33786655 257.49785254 54.50290171 261.65867535 C56.90496353 264.05805166 59.30864469 266.45574544 61.71677589 268.84903145 C64.32948547 271.44730495 66.93594552 274.0516937 69.54096985 276.65766907 C70.29934011 277.40884941 71.05771038 278.16002975 71.83906156 278.93397313 C79.05317571 286.17633766 84.4789988 292.70147194 85.05859375 303.33984375 C84.86564082 309.63225323 83.01594245 315.27702991 78.91796875 320.109375 C73.39087903 325.27742149 67.77156571 328.07695902 60.18359375 328.40234375 C47.34175677 327.85260758 38.64079385 318.29203356 30.0844574 309.66871643 C29.26822421 308.85419209 28.45199102 308.03966775 27.61102349 307.20046085 C24.89794418 304.49065584 22.19203954 301.77380199 19.48608398 299.05688477 C17.53502994 297.10414977 15.58246344 295.15292963 13.62995911 293.2016449 C9.43777463 289.01050535 5.249246 284.81574129 1.06323051 280.61844063 C-4.98892945 274.54997521 -11.04665327 268.48708869 -17.10571694 262.42551719 C-26.93776114 252.58910378 -36.76533759 242.74823929 -46.59008789 232.90454102 C-56.12972616 223.34652387 -65.67147826 213.79062511 -75.21606445 204.23754883 C-75.80512507 203.64796277 -76.39418568 203.05837671 -77.00109661 202.4509244 C-79.95647252 199.49293828 -82.91188987 196.53499355 -85.86732781 193.5770694 C-110.35678024 169.06690859 -134.83897499 144.54950946 -159.31640625 120.02734375 C-162.33857806 121.46115444 -164.0751824 122.62061263 -166.09375 125.30859375 C-166.60043213 125.97608643 -167.10711426 126.6435791 -167.62915039 127.33129883 C-168.16531982 128.05599365 -168.70148926 128.78068848 -169.25390625 129.52734375 C-170.10553345 130.66369263 -170.10553345 130.66369263 -170.97436523 131.82299805 C-172.16780932 133.42099945 -173.35694001 135.02223026 -174.54199219 136.62646484 C-176.22973714 138.91007572 -177.93239516 141.18187781 -179.63671875 143.453125 C-199.9369619 170.75997055 -217.40181452 202.12103122 -228.62988281 234.27758789 C-231.46965637 242.1997527 -231.46965637 242.1997527 -235.31640625 245.02734375 C-238.31640625 245.52734375 -238.31640625 245.52734375 -241.31640625 245.02734375 C-250.40979076 237.47580478 -251.86425573 222.64351328 -253.08935547 211.54199219 C-255.64519028 183.23543463 -248.71191251 156.32695053 -236.31640625 131.02734375 C-235.99414062 130.36895508 -235.671875 129.71056641 -235.33984375 129.03222656 C-226.30353852 110.84023401 -214.08060936 94.74783368 -201.31640625 79.02734375 C-202.93107417 74.85102701 -206.01410741 72.1962863 -209.19921875 69.1953125 C-210.37833489 68.05609437 -211.55669762 66.91609602 -212.734375 65.77539062 C-214.58791879 63.98992316 -216.44608043 62.21043289 -218.31787109 60.4440918 C-220.12773611 58.73122639 -221.91452107 56.99683525 -223.69921875 55.2578125 C-224.54288498 54.47775093 -224.54288498 54.47775093 -225.40359497 53.68193054 C-228.20427754 50.9192967 -229.27517878 49.31053879 -229.84790039 45.37646484 C-229.29421866 41.88753237 -228.85348275 40.67997229 -226.4296875 38.2109375 C-225.7898291 37.54304199 -225.1499707 36.87514648 -224.49072266 36.18701172 C-223.41443604 35.11797607 -223.41443604 35.11797607 -222.31640625 34.02734375 C-221.5486084 33.23602051 -220.78081055 32.44469727 -219.98974609 31.62939453 C-217.51622849 29.09358166 -215.01453025 26.58888916 -212.50390625 24.08984375 C-211.21709961 22.79723633 -211.21709961 22.79723633 -209.90429688 21.47851562 C-209.08509766 20.66060547 -208.26589844 19.84269531 -207.421875 19 C-206.68090576 18.26015869 -205.93993652 17.52031738 -205.17651367 16.75805664 C-202.68114227 14.43627059 -201.5500521 14.0598634 -198.11694336 13.58203125 C-192.90442797 14.19278657 -191.00137 16.43978457 -187.5078125 20.15234375 C-186.89622787 20.77383301 -186.28464325 21.39532227 -185.65452576 22.03564453 C-183.71222432 24.01701181 -181.79571851 26.0213383 -179.87890625 28.02734375 C-178.56348036 29.37789298 -177.24643939 30.72687114 -175.92773438 32.07421875 C-172.70495984 35.37401512 -169.50509987 38.69461602 -166.31640625 42.02734375 C-162.73552165 40.76482019 -160.29094168 39.38158205 -157.5234375 36.79296875 C-131.92686488 13.63330959 -97.505934 -3.74170035 -63.31640625 -8.97265625 C-62.09244141 -9.16794922 -62.09244141 -9.16794922 -60.84375 -9.3671875 C-42.95974008 -11.66787488 -14.5798133 -12.41619851 0 0 Z " fill="#000000" transform="translate(340.31640625,96.97265625)"/>
</svg>
