<?xml version="1.0" encoding="UTF-8"?>
<svg version="1.1" xmlns="http://www.w3.org/2000/svg" width="512" height="512">
<path d="M0 0 C0.83580534 -0.00581376 1.67161068 -0.01162753 2.53274345 -0.01761746 C5.34015508 -0.03224329 8.14669596 -0.01832019 10.95410156 -0.00457001 C12.98441007 -0.00917789 15.01471525 -0.01553005 17.04501343 -0.02347898 C22.62953845 -0.04021076 28.21379082 -0.03190836 33.79831696 -0.01953411 C39.8188514 -0.01050172 45.83933823 -0.02444435 51.85986328 -0.0354538 C62.97410283 -0.05223318 74.08826718 -0.05074998 85.20250726 -0.03980792 C95.4696496 -0.02974935 105.73676 -0.02711718 116.00390625 -0.0318985 C117.02510539 -0.03235681 117.02510539 -0.03235681 118.06693482 -0.03282438 C120.83045758 -0.03406971 123.59398033 -0.03534331 126.35750306 -0.03666343 C152.28635849 -0.04890198 178.21515843 -0.03780156 204.1440053 -0.01627585 C227.18490045 0.00270687 250.22570718 0.00100837 273.26660156 -0.01811981 C299.1477494 -0.03953406 325.02884819 -0.04803406 350.91000366 -0.03567076 C353.66851806 -0.03438787 356.42703246 -0.03313651 359.18554688 -0.0318985 C359.86477337 -0.03158219 360.54399987 -0.03126588 361.24380898 -0.03093999 C371.50500068 -0.02638832 381.76615696 -0.03171449 392.02734375 -0.04181671 C403.69370525 -0.05324501 415.35998258 -0.05002744 427.02633476 -0.02869374 C432.98146366 -0.01816367 438.93641286 -0.01409491 444.89154053 -0.02729034 C450.33938626 -0.03917939 455.78688514 -0.03270918 461.23469925 -0.01138014 C463.20903809 -0.00689928 465.18340604 -0.00921341 467.15772629 -0.01888329 C469.83538893 -0.03099546 472.51185366 -0.01862507 475.18945312 0 C475.96131392 -0.00936466 476.73317471 -0.01872933 477.52842522 -0.02837777 C482.69744121 0.04379707 485.61072345 1.2473756 489.59472656 4.50336456 C493.41088278 9.02763043 494.09816749 12.20769476 494.11230469 18.06586456 C494.1228186 19.16462921 494.1228186 19.16462921 494.13354492 20.28559113 C494.15106053 22.69190839 494.13952611 25.09703665 494.12597656 27.50336456 C494.12867335 29.18435643 494.13255733 30.86534677 494.13757324 32.54633331 C494.14345954 36.06341199 494.13493365 39.58008336 494.11621094 43.09711456 C494.09342157 47.59638645 494.10654936 52.09470383 494.13050079 56.59394073 C494.14498247 60.06333303 494.140342 63.53250051 494.12998962 67.00189972 C494.12732887 68.66042953 494.13056913 70.31898001 494.13990784 71.97748566 C494.15011303 74.29915877 494.13451935 76.61930467 494.11230469 78.94086456 C494.10912231 80.2595755 494.10593994 81.57828644 494.10266113 82.93695831 C493.35214368 88.20663336 490.90013276 91.23143032 487.15722656 94.87836456 C481.72048857 97.35828014 476.4665969 96.7630343 470.59472656 96.50336456 C470.44673111 97.30647064 470.29873566 98.10957672 470.14625549 98.93701935 C467.78185437 111.27474523 464.73171721 123.42875167 461.68457031 135.61273956 C461.1105869 137.91578592 460.53674184 140.21886677 459.96302795 142.52198029 C458.76773541 147.31651466 457.56969638 152.11035273 456.36987305 156.90375519 C454.83123651 163.05236262 453.30126581 169.20309074 451.77348995 175.35440445 C450.59455653 180.09592384 449.4102592 184.83609103 448.22439766 189.57588196 C447.6575727 191.84487643 447.09262542 194.11434082 446.52958488 196.38427734 C445.74559943 199.54226206 444.95421937 202.69830253 444.16088867 205.8539505 C443.92967316 206.79207581 443.69845764 207.73020111 443.4602356 208.69675446 C443.13446281 209.98303238 443.13446281 209.98303238 442.80210876 211.29529572 C442.61611587 212.03997982 442.43012297 212.78466393 442.23849392 213.55191422 C441.59472656 215.50336456 441.59472656 215.50336456 439.59472656 218.50336456 C439.03527344 217.94648956 438.47582031 217.38961456 437.89941406 216.81586456 C422.37776684 202.04284985 402.04139033 193.73724312 380.59472656 193.50336456 C359.09523474 194.67724986 338.66773183 202.84202587 323.59472656 218.50336456 C316.60224584 226.52011597 311.37131748 235.56620971 307.59472656 245.50336456 C307.18222656 246.54750519 306.76972656 247.59164581 306.34472656 248.66742706 C301.85922692 262.2173739 303.59472656 273.27949667 303.59472656 288.50336456 C260.03472656 288.50336456 216.47472656 288.50336456 171.59472656 288.50336456 C171.59472656 279.26336456 171.59472656 270.02336456 171.59472656 260.50336456 C167.79981461 239.6313488 156.75115148 220.51700825 139.43847656 208.01508331 C121.35174223 195.7586941 100.1213796 191.21152413 78.60888672 195.08490753 C61.59327365 198.62003005 48.25286349 207.04681837 35.59472656 218.50336456 C33.73755021 215.71760004 33.08818747 214.10143713 32.29795837 210.93775177 C32.06105789 210.00135864 31.82415741 209.06496552 31.58007812 208.10019684 C31.32701904 207.07469727 31.07395996 206.04919769 30.81323242 204.99262238 C30.54144669 203.91102844 30.26966095 202.82943451 29.98963928 201.715065 C29.09048845 198.13029552 28.19987154 194.54346628 27.30957031 190.95648956 C26.68746956 188.466376 26.06495111 185.97636676 25.44203186 183.48645782 C24.13630206 178.26188306 22.83446154 173.03636288 21.53588867 167.81000519 C20.03733175 161.77895239 18.53220132 155.7495709 17.0233354 149.7210896 C15.56979644 143.91325555 14.12034075 138.10441266 12.67282295 132.29507446 C12.05774247 129.82772683 11.441745 127.3606076 10.82481194 124.89372253 C9.96197456 121.4405718 9.10376162 117.98630428 8.24682617 114.53168488 C7.99174286 113.51428223 7.73665955 112.49687958 7.47384644 111.44864655 C6.24514079 106.47424811 5.19994907 101.59281479 4.59472656 96.50336456 C3.72589844 96.54977081 2.85707031 96.59617706 1.96191406 96.64398956 C-7.45068407 96.93879129 -7.45068407 96.93879129 -11.96777344 94.87836456 C-15.71067964 91.23143032 -18.16269056 88.20663336 -18.91320801 82.93695831 C-18.91639038 81.61824738 -18.91957275 80.29953644 -18.92285156 78.94086456 C-18.92986084 78.2083548 -18.93687012 77.47584503 -18.9440918 76.721138 C-18.96160741 74.31482074 -18.95007298 71.90969248 -18.93652344 69.50336456 C-18.93922023 67.8223727 -18.94310421 66.14138236 -18.94812012 64.46039581 C-18.95400642 60.94331713 -18.94548053 57.42664577 -18.92675781 53.90961456 C-18.90396845 49.41034267 -18.91709624 44.91202529 -18.94104767 40.41278839 C-18.95552935 36.9433961 -18.95088887 33.47422862 -18.9405365 30.00482941 C-18.93787575 28.3462996 -18.941116 26.68774912 -18.95045471 25.02924347 C-18.9606599 22.70757035 -18.94506622 20.38742446 -18.92285156 18.06586456 C-18.91966919 16.74715363 -18.91648682 15.42844269 -18.91320801 14.06977081 C-18.14383584 8.66770948 -15.96241625 5.77596393 -11.78418732 2.36124086 C-7.74185434 0.1385874 -4.49063686 -0.05448302 0 0 Z " fill="#000000" transform="translate(18.4052734375,191.49663543701172)"/>
<path d="M0 0 C1.2582811 -0.01268417 2.51656219 -0.02536835 3.81297302 -0.03843689 C5.1735755 -0.03638517 6.53417683 -0.0333969 7.89477539 -0.02954102 C9.30432892 -0.03410757 10.71388023 -0.03941456 12.12342834 -0.04542542 C15.07131012 -0.05433768 18.01892071 -0.05195528 20.96679688 -0.04199219 C24.73061645 -0.03050628 28.49349725 -0.05071643 32.25719357 -0.07990932 C35.16644665 -0.09832173 38.07547686 -0.09796893 40.98477364 -0.0922718 C42.37175373 -0.09211919 43.75874952 -0.09811344 45.14567375 -0.11056328 C54.3074929 -0.18122592 59.62626624 0.22445887 66.69140625 6.21582031 C67.56551147 7.12303833 67.56551147 7.12303833 68.45727539 8.04858398 C69.12049805 8.72598633 69.7837207 9.40338867 70.46704102 10.10131836 C71.13541992 10.7993457 71.80379883 11.49737305 72.49243164 12.21655273 C77.64809535 17.54223834 82.88755869 22.62248067 88.55493164 27.40405273 C89.95074463 28.63490601 89.95074463 28.63490601 91.37475586 29.890625 C94.45291012 32.44663935 97.69638888 34.18206322 101.30883789 35.91967773 C101.93217514 36.22097595 102.55551239 36.52227417 103.19773865 36.83270264 C104.50420396 37.46183203 105.81267418 38.08681375 107.12304688 38.70776367 C109.12070259 39.65560473 111.11051323 40.61858807 113.09985352 41.58374023 C120.85109283 45.30225618 126.55899767 47.58147836 135.23461914 47.33374023 C152.62592858 47.13171457 165.84781269 48.64731616 181.12036133 57.93603516 C182.75522086 58.92183644 184.42491011 59.85186497 186.12231445 60.72558594 C193.30823346 64.55173904 197.16358595 69.45678974 201.55493164 76.21655273 C202.53526367 77.63677734 202.53526367 77.63677734 203.53540039 79.08569336 C207.66595771 85.27301273 208.82166695 88.60436161 210.55493164 96.40405273 C115.18493164 96.40405273 19.81493164 96.40405273 -78.44506836 96.40405273 C-77.66824659 90.18947855 -77.31977816 87.40318128 -74.74975586 82.20874023 C-74.20311279 81.08798096 -73.65646973 79.96722168 -73.09326172 78.8125 C-72.50810791 77.6464624 -71.9229541 76.4804248 -71.32006836 75.27905273 C-70.40810698 73.44892907 -69.4977154 71.61803035 -68.58744812 69.7870636 C-67.70990213 68.02373982 -66.82922786 66.26197399 -65.94848633 64.50024414 C-64.78020289 62.09424048 -63.70712373 59.71474769 -62.73022461 57.22827148 C-57.06733314 43.52243271 -44.38886398 33.34600604 -33.35522461 23.85327148 C-28.13263634 19.34216816 -23.40237681 14.34204284 -18.62475586 9.36889648 C-17.91319336 8.6431543 -17.20163086 7.91741211 -16.46850586 7.16967773 C-15.8386377 6.51773438 -15.20876953 5.86579102 -14.55981445 5.1940918 C-10.01971606 1.35109925 -5.89258134 0.02887716 0 0 Z " fill="#000000" transform="translate(122.445068359375,63.595947265625)"/>
<path d="M0 0 C1.20167313 -0.01283524 2.40334625 -0.02567047 3.64143372 -0.03889465 C4.94142807 -0.04628159 6.24142242 -0.05366852 7.58081055 -0.0612793 C8.24355673 -0.06535482 8.90630291 -0.06943035 9.58913231 -0.07362938 C13.09734152 -0.09446897 16.60551187 -0.10877953 20.11376953 -0.11816406 C23.72860463 -0.12922202 27.34282305 -0.16361973 30.95744038 -0.20333576 C33.74479785 -0.2295388 36.53200919 -0.23785911 39.31947899 -0.24144554 C41.29700373 -0.24865603 43.2744284 -0.27507844 45.25178528 -0.30183411 C56.44432281 -0.27479776 56.44432281 -0.27479776 61.1550293 4.17700195 C62.71899414 5.83349609 62.71899414 5.83349609 63.8659668 7.4621582 C64.30191162 8.0701123 64.73785645 8.67806641 65.18701172 9.30444336 C65.63020752 9.9430127 66.07340332 10.58158203 66.5300293 11.23950195 C67.00480713 11.90127441 67.47958496 12.56304687 67.96875 13.24487305 C70.14211482 16.27974195 72.26663159 19.34154126 74.36206055 22.4309082 C78.95747852 29.09290467 82.78061766 32.58201809 90.00463867 36.07006836 C91.41360789 36.75098162 92.82111152 37.43493412 94.22729492 38.12158203 C95.65133396 38.8117301 97.0822049 39.48799938 98.52026367 40.1484375 C99.18864258 40.46723877 99.85702148 40.78604004 100.5456543 41.11450195 C101.14410156 41.39165039 101.74254883 41.66879883 102.35913086 41.9543457 C106.84206165 45.00634644 109.07976566 49.69181222 111.35424805 54.46606445 C112.20792969 56.24883789 112.20792969 56.24883789 113.07885742 58.06762695 C113.36833252 58.68057617 113.65780762 59.29352539 113.95605469 59.92504883 C114.84464355 61.80647851 115.74212431 63.68345225 116.64135742 65.55981445 C125.125271 83.35958753 122.1550293 84.19246481 122.1550293 112.17700195 C83.5450293 112.17700195 44.9350293 112.17700195 5.1550293 112.17700195 C4.1650293 105.24700195 4.1650293 105.24700195 3.1550293 98.17700195 C0.60061069 90.26961755 -3.28968785 83.96252991 -8.0324707 77.17700195 C-8.70592529 76.20875488 -9.37937988 75.24050781 -10.07324219 74.24291992 C-18.35293711 62.4682834 -25.8484844 54.68197903 -38.8449707 48.17700195 C-39.79130371 47.69376465 -40.73763672 47.21052734 -41.71264648 46.71264648 C-44.93398325 45.07514617 -48.16787556 43.46555409 -51.4074707 41.86450195 C-52.43549805 41.34839355 -53.46352539 40.83228516 -54.52270508 40.30053711 C-61.80278136 36.78183357 -68.90634222 34.68225676 -76.8449707 33.17700195 C-75.3176378 29.93790192 -73.85168782 28.05279364 -71.0949707 25.73950195 C-70.02956055 24.84038086 -70.02956055 24.84038086 -68.94262695 23.9230957 C-68.25040039 23.34688477 -67.55817383 22.77067383 -66.8449707 22.17700195 C-66.26618164 21.67297852 -65.68739258 21.16895508 -65.09106445 20.6496582 C-60.81656484 16.9536623 -57.96534961 16.06638864 -52.3996582 15.96606445 C-51.32200195 15.93770508 -50.2443457 15.9093457 -49.1340332 15.88012695 C-46.88158371 15.82858349 -44.62895859 15.7841583 -42.3762207 15.74731445 C-31.5660377 15.43918572 -24.44320324 13.24690173 -15.9699707 6.55200195 C-14.68346978 5.55649528 -13.39450383 4.56416388 -12.1027832 3.57543945 C-11.5473584 3.13893066 -10.99193359 2.70242187 -10.41967773 2.25268555 C-7.0694778 -0.03583862 -3.9216322 0.03645801 0 0 Z " fill="#000000" transform="translate(357.844970703125,47.822998046875)"/>
<path d="M0 0 C10.23906578 7.73254248 18.72711365 17.59665562 20.6875 30.6875 C22.11678455 48.13329299 19.50517553 61.04058775 8.03125 74.65234375 C0.02533375 83.28136197 -10.26078398 88.35475631 -21.96875 89.00390625 C-38.65548452 89.56319388 -50.64291019 85.89777041 -63.0625 74.375 C-73.05541038 63.81645319 -75.82689781 52.26922077 -75.73217773 38.15722656 C-75.32139743 24.03483761 -69.475381 12.95884274 -59.25 3.28125 C-42.59283172 -10.42061423 -18.05009418 -11.9794347 0 0 Z " fill="#000000" transform="translate(427.3125,423.3125)"/>
<path d="M0 0 C10.23906578 7.73254248 18.72711365 17.59665562 20.6875 30.6875 C22.11678455 48.13329299 19.50517553 61.04058775 8.03125 74.65234375 C0.02533375 83.28136197 -10.26078398 88.35475631 -21.96875 89.00390625 C-38.65548452 89.56319388 -50.64291019 85.89777041 -63.0625 74.375 C-73.05541038 63.81645319 -75.82689781 52.26922077 -75.73217773 38.15722656 C-75.32139743 24.03483761 -69.475381 12.95884274 -59.25 3.28125 C-42.59283172 -10.42061423 -18.05009418 -11.9794347 0 0 Z " fill="#000000" transform="translate(139.3125,423.3125)"/>
<path d="M0 0 C1.43526979 -0.00270344 2.87053778 -0.00659288 4.30580139 -0.01159668 C7.29706457 -0.0174538 10.28784611 -0.00905432 13.27905273 0.00976562 C17.07926604 0.03253296 20.87834748 0.01942319 24.67851925 -0.00452423 C27.63774361 -0.01910386 30.59670765 -0.01432093 33.55594063 -0.00401306 C34.95552269 -0.00137808 36.35512978 -0.00449933 37.75468254 -0.01393127 C48.33529099 -0.06960767 59.94967799 0.61380838 67.91015625 8.46875 C68.70808594 9.24734375 69.50601563 10.0259375 70.328125 10.828125 C71.18019531 11.72015625 72.03226563 12.6121875 72.91015625 13.53125 C73.41111816 14.05525391 73.91208008 14.57925781 74.42822266 15.11914062 C79.79163021 20.75999411 84.96341227 26.52127143 89.91015625 32.53125 C88.64300781 32.70140625 87.37585938 32.8715625 86.0703125 33.046875 C73.48169035 34.64492313 73.48169035 34.64492313 61.91015625 39.53125 C61.25015625 39.89347656 60.59015625 40.25570312 59.91015625 40.62890625 C49.96977886 46.60409633 41.76914385 55.72128784 33.5625 63.8125 C32.49044312 64.85386108 32.49044312 64.85386108 31.39672852 65.91625977 C30.01092584 67.26328753 28.63718809 68.62286302 27.27709961 69.99584961 C22.6592307 74.4634766 22.6592307 74.4634766 19.44921875 74.75390625 C12.25338537 71.28883572 6.9105866 66.91381721 1.41015625 61.15625 C0.09676437 59.81342727 -1.21831955 58.47225724 -2.53515625 57.1328125 C-3.46183105 56.18776855 -3.46183105 56.18776855 -4.40722656 55.22363281 C-7.48104976 52.13196967 -10.71582087 49.28718679 -14.08984375 46.53125 C-14.79109375 45.92925781 -15.49234375 45.32726563 -16.21484375 44.70703125 C-30.84090618 32.5948233 -48.98728434 33.16282419 -67.08984375 32.53125 C-59.70838548 21.76662336 -51.56601751 16.31312368 -39.77734375 10.84375 C-38.61783203 10.28880859 -37.45832031 9.73386719 -36.26367188 9.16210938 C-32.88787309 7.56624272 -29.52450176 5.99692457 -26.08984375 4.53125 C-25.31886856 4.18230682 -24.54789337 3.83336365 -23.7535553 3.47384644 C-15.85210685 0.19219335 -8.46276152 -0.0569368 0 0 Z " fill="#000000" transform="translate(221.08984375,-0.53125)"/>
</svg>
