<?xml version="1.0" encoding="UTF-8"?>
<svg version="1.1" xmlns="http://www.w3.org/2000/svg" width="512" height="512">
<path d="M0 0 C3.78634415 5.67951622 1.92507419 12.52448069 1 19 C-0.00457004 33.78153062 4.13892565 49.65707022 14 61 C15.485 61.495 15.485 61.495 17 62 C28.01158782 56.4089184 33.10628082 47.18858589 38.58203125 36.66015625 C40 34 40 34 41 33 C43.67058851 32.85884839 46.32432238 32.95752893 49 33 C58.836681 47.58542356 57.8459931 68.77179493 54.92041016 85.4519043 C54.34927405 88.31919329 53.71005148 91.16402056 53 94 C59.75213043 91.62140862 59.75213043 91.62140862 65.6875 87.75 C68 86 68 86 71.625 85.4375 C75 86 75 86 76.8125 87.9375 C79.88080251 95.85049068 80.35710764 103.57174139 80.3125 112 C80.30512817 113.64995972 80.30512817 113.64995972 80.29760742 115.33325195 C79.95535301 139.36302172 72.96435765 161.50217286 55.46923828 178.62011719 C34.07952854 198.70895724 6.66744145 202.905031 -21.56298828 202.17041016 C-41.03020793 201.20520776 -60.6724093 190.34859945 -73.96875 176.37109375 C-91.00775809 156.48132854 -101.64194947 130.48080205 -100 104 C-98.82024686 91.40488901 -95.24141222 80.04284988 -86.28125 70.84375 C-82.98715597 68.18140003 -81.20262651 67.66378988 -77 68 C-73.21839356 70.52107096 -73.13189464 72.07131082 -71.9375 76.375 C-70.47640452 81.89805985 -70.47640452 81.89805985 -68 87 C-65.46229997 88.28254644 -65.46229997 88.28254644 -63 89 C-63.03480469 87.69546875 -63.06960937 86.3909375 -63.10546875 85.046875 C-63.10079235 80.26197772 -62.40193538 75.8964521 -61.3125 71.25 C-61.13170898 70.46778076 -60.95091797 69.68556152 -60.76464844 68.87963867 C-54.31530215 42.06321284 -38.26922036 18.9161669 -15 4 C-13.989375 3.195625 -12.97875 2.39125 -11.9375 1.5625 C-8.06779427 -0.49585411 -4.31188277 -0.95723798 0 0 Z " fill="#000000" transform="translate(275,288)"/>
<path d="M0 0 C12.57788245 9.91656727 22.20598236 22.87790466 25 39 C26.53378228 59.49344676 23.3669748 76.28866291 9.6875 92.3125 C3.08681068 99.29421383 -4.80344088 104.97209403 -14 108 C-14.99 108 -15.98 108 -17 108 C-17 112.62 -17 117.24 -17 122 C-15.865625 121.95359375 -14.73125 121.9071875 -13.5625 121.859375 C2.56661649 121.3890393 2.56661649 121.3890393 8 126 C12.73992966 130.51523773 15.7461203 134.74118182 16.26742554 141.43269348 C16.27504913 142.74759262 16.28267273 144.06249176 16.29052734 145.41723633 C16.29724457 146.14638748 16.30396179 146.87553864 16.31088257 147.62678528 C16.32982336 150.02860397 16.3337849 152.43014259 16.3359375 154.83203125 C16.34236873 156.50965996 16.34909733 158.18728756 16.35610962 159.86491394 C16.36807299 163.37945148 16.37179147 166.89389081 16.37060547 170.40844727 C16.37040246 174.89739344 16.39768936 179.38570522 16.43214989 183.87450123 C16.45446166 187.3396439 16.45844169 190.80463501 16.45738602 194.26984215 C16.45973612 195.92394888 16.46852623 197.57806017 16.48405075 199.23209572 C16.63206101 216.63219776 16.63206101 216.63219776 10.25390625 224.0234375 C9.69574219 224.46945312 9.13757813 224.91546875 8.5625 225.375 C7.72912109 226.06722656 7.72912109 226.06722656 6.87890625 226.7734375 C2.27948674 229.77596916 -1.69771068 230.25762964 -7.1418457 230.29052734 C-7.84173615 230.29724457 -8.54162659 230.30396179 -9.26272583 230.31088257 C-11.56715069 230.32981643 -13.87128353 230.33378455 -16.17578125 230.3359375 C-17.78614927 230.34236926 -19.39651612 230.3490979 -21.00688171 230.35610962 C-24.38018501 230.36807129 -27.75338599 230.37179165 -31.12670898 230.37060547 C-35.43406376 230.37040248 -39.74075725 230.39768798 -44.04795551 230.43214989 C-47.37412994 230.45446811 -50.70014655 230.45844149 -54.02638817 230.45738602 C-55.61350976 230.45973521 -57.20063615 230.46852012 -58.78768349 230.48405075 C-75.63061494 230.63342687 -75.63061494 230.63342687 -83.0234375 224.25390625 C-83.69246094 223.41666016 -83.69246094 223.41666016 -84.375 222.5625 C-84.83648437 222.00691406 -85.29796875 221.45132813 -85.7734375 220.87890625 C-88.83516769 216.18880363 -89.2583403 212.13430538 -89.29052734 206.58276367 C-89.29724457 205.85361252 -89.30396179 205.12446136 -89.31088257 204.37321472 C-89.32982336 201.97139603 -89.3337849 199.56985741 -89.3359375 197.16796875 C-89.34236873 195.49034004 -89.34909733 193.81271244 -89.35610962 192.13508606 C-89.36807299 188.62054852 -89.37179147 185.10610919 -89.37060547 181.59155273 C-89.37040246 177.10260656 -89.39768936 172.61429478 -89.43214989 168.12549877 C-89.45446166 164.6603561 -89.45844169 161.19536499 -89.45738602 157.73015785 C-89.45973612 156.07605112 -89.46852623 154.42193983 -89.48405075 152.76790428 C-89.63206101 135.36780224 -89.63206101 135.36780224 -83.25390625 127.9765625 C-82.69574219 127.53054687 -82.13757813 127.08453125 -81.5625 126.625 C-80.72912109 125.93277344 -80.72912109 125.93277344 -79.87890625 125.2265625 C-74.54371058 121.74371128 -69.86864088 121.74815733 -63.6875 121.875 C-62.85154297 121.88402344 -62.01558594 121.89304688 -61.15429688 121.90234375 C-59.10274031 121.92579011 -57.05133223 121.96165734 -55 122 C-55 117.38 -55 112.76 -55 108 C-56.65 107.67 -58.3 107.34 -60 107 C-74.33925129 101.06495444 -85.30911794 89.68002392 -91.49609375 75.59375 C-97.26860791 61.07252458 -98.82074895 43.70913831 -93.25390625 28.8125 C-85.81416739 12.12523527 -74.9475766 0.8437771 -58.30859375 -6.73828125 C-39.48466847 -13.91670848 -16.5978384 -11.46154457 0 0 Z M-63.58203125 27.03515625 C-65.17948116 29.30112535 -66.61553059 31.59861942 -68 34 C-68.34417969 34.59296875 -68.68835938 35.1859375 -69.04296875 35.796875 C-72.62298491 43.3939046 -72.21566475 53.52755439 -70.05078125 61.4921875 C-66.2091578 71.21137365 -61.02858308 76.79474547 -52 82 C-51.11054688 82.51626953 -51.11054688 82.51626953 -50.203125 83.04296875 C-42.6060954 86.62298491 -32.47244561 86.21566475 -24.5078125 84.05078125 C-14.78862635 80.2091578 -9.20525453 75.02858308 -4 66 C-3.65582031 65.40703125 -3.31164062 64.8140625 -2.95703125 64.203125 C0.62298491 56.6060954 0.21566475 46.47244561 -1.94921875 38.5078125 C-5.7908422 28.78862635 -10.97141692 23.20525453 -20 18 C-20.59296875 17.65582031 -21.1859375 17.31164062 -21.796875 16.95703125 C-35.4867348 10.50583626 -54.46547705 15.30744085 -63.58203125 27.03515625 Z " fill="#000000" transform="translate(302,32)"/>
<path d="M0 0 C1.08003296 0.00326294 1.08003296 0.00326294 2.18188477 0.0065918 C4.37697108 0.0097488 6.57070573 -0.01369198 8.765625 -0.0390625 C10.15950351 -0.04133581 11.55338564 -0.04203884 12.94726562 -0.04101562 C14.85270142 -0.04548706 14.85270142 -0.04548706 16.79663086 -0.05004883 C19.95117188 0.32226562 19.95117188 0.32226562 21.87719727 1.67700195 C23.35503487 3.94095912 23.16546496 5.67931761 22.95117188 8.32226562 C23.70398438 8.27585938 24.45679688 8.22945312 25.23242188 8.18164062 C38.6803283 7.72467293 51.06530054 11.02663348 62.95117188 17.32226562 C63.9025 17.81339844 64.85382813 18.30453125 65.83398438 18.81054688 C94.16232052 34.30607278 112.29325109 63.12254498 121.54492188 93.35351562 C124.3189267 102.90842114 126.47778125 112.3166875 125.95117188 122.32226562 C127.04429687 122.26039063 128.13742187 122.19851563 129.26367188 122.13476562 C132.95117188 122.32226562 132.95117188 122.32226562 134.65673828 123.41210938 C136.59444828 126.27152903 136.34012391 128.64665599 136.34960938 132.07226562 C136.35391464 133.05404785 136.35391464 133.05404785 136.35830688 134.05566406 C136.36034555 135.43750882 136.35482933 136.81938256 136.34228516 138.20117188 C136.32622623 140.31511013 136.34213788 142.42713676 136.36132812 144.54101562 C136.35934565 145.88476984 136.3555019 147.22852287 136.34960938 148.57226562 C136.34622559 149.79429687 136.3428418 151.01632812 136.33935547 152.27539062 C135.95117188 155.32226562 135.95117188 155.32226562 134.71394348 156.98888588 C132.45265587 158.69934859 131.17801821 158.69932412 128.35864258 158.70321655 C127.41646881 158.71167603 126.47429504 158.7201355 125.50357056 158.72885132 C123.95589493 158.71974228 123.95589493 158.71974228 122.37695312 158.71044922 C120.74492447 158.71833466 120.74492447 158.71833466 119.07992554 158.72637939 C115.4743627 158.73961053 111.8692394 158.73083 108.26367188 158.72070312 C105.76407791 158.72272296 103.26448452 158.72563363 100.76489258 158.72940063 C95.52257785 158.73382821 90.280378 158.7276639 85.03808594 158.71337891 C78.97645438 158.69705204 72.91512554 158.70234048 66.85350132 158.71885812 C61.02342323 158.73410922 55.19346027 158.73249914 49.3633728 158.72371292 C46.88178465 158.72170764 44.4001888 158.72418162 41.91860962 158.73115158 C38.45399328 158.73874636 34.98996316 158.72718892 31.52539062 158.71044922 C30.49360687 158.71652191 29.46182312 158.7225946 28.39877319 158.72885132 C27.45659943 158.72039185 26.51442566 158.71193237 25.54370117 158.70321655 C24.72443649 158.70208548 23.90517181 158.7009544 23.06108093 158.69978905 C20.4214546 158.22748397 19.5361419 157.45731455 17.95117188 155.32226562 C17.56298828 152.27539062 17.56298828 152.27539062 17.55273438 148.57226562 C17.5498642 147.91774414 17.54699402 147.26322266 17.54403687 146.58886719 C17.5419982 145.20702243 17.54751442 143.82514869 17.56005859 142.44335938 C17.57611752 140.32942112 17.56020587 138.21739449 17.54101562 136.10351562 C17.5429981 134.75976141 17.54684185 133.41600838 17.55273438 132.07226562 C17.55611816 130.85023438 17.55950195 129.62820313 17.56298828 128.36914062 C17.95117188 125.32226562 17.95117188 125.32226562 19.28857422 123.40039062 C20.95117188 122.32226562 20.95117188 122.32226562 23.95117188 122.32226562 C22.96117187 119.35226562 21.97117187 116.38226563 20.95117188 113.32226562 C19.99227051 113.33273926 19.03336914 113.34321289 18.04541016 113.35400391 C14.49336469 113.39015891 10.94133553 113.41314956 7.38916016 113.43212891 C5.85072089 113.4421968 4.3123008 113.45585209 2.77392578 113.47314453 C0.56473055 113.49735879 -1.64421207 113.50874053 -3.85351562 113.51757812 C-4.54315399 113.5279007 -5.23279236 113.53822327 -5.94332886 113.54885864 C-7.64683719 113.54926041 -9.34968755 113.44417588 -11.04882812 113.32226562 C-13.48303007 110.88806368 -13.29965047 110.29107514 -13.30279541 106.95715332 C-13.30843506 106.04015152 -13.31407471 105.12314972 -13.31988525 104.17835999 C-13.31583679 103.16946213 -13.31178833 102.16056427 -13.30761719 101.12109375 C-13.31112183 100.06087509 -13.31462646 99.00065643 -13.3182373 97.90830994 C-13.32706811 94.38997933 -13.32120064 90.87184842 -13.31445312 87.35351562 C-13.31579939 84.917358 -13.31773959 82.48120064 -13.32025146 80.04504395 C-13.32320456 74.93381193 -13.31889909 69.8226497 -13.30957031 64.71142578 C-13.29817574 58.14703059 -13.30473421 51.58279892 -13.31671524 45.01840973 C-13.32392881 39.98625447 -13.32164822 34.95413822 -13.31645966 29.92198181 C-13.31512177 27.50097128 -13.31677571 25.07995725 -13.32141876 22.65895081 C-13.3264757 19.28035037 -13.31878536 15.90201788 -13.30761719 12.5234375 C-13.31166565 11.51453964 -13.31571411 10.50564178 -13.31988525 9.46617126 C-13.31424561 8.54916946 -13.30860596 7.63216766 -13.30279541 6.68737793 C-13.30204136 5.88801567 -13.30128731 5.08865341 -13.30051041 4.26506805 C-12.50106586 -1.90605693 -4.6853348 0.01875899 0 0 Z " fill="#000000" transform="translate(376.048828125,151.677734375)"/>
<path d="M0 0 C2.20576197 -0.00218874 4.41102562 -0.02035586 6.61669922 -0.03930664 C8.01383292 -0.0422402 9.410969 -0.04422525 10.80810547 -0.04516602 C12.08363281 -0.0492749 13.35916016 -0.05338379 14.67333984 -0.05761719 C17.71435547 0.18530273 17.71435547 0.18530273 19.71435547 2.18530273 C19.96603775 4.12810516 19.96603775 4.12810516 19.96832275 6.55041504 C19.97678223 7.92591774 19.97678223 7.92591774 19.9854126 9.32920837 C19.9793399 10.84255516 19.9793399 10.84255516 19.97314453 12.38647461 C19.97840149 13.9768026 19.97840149 13.9768026 19.98376465 15.59925842 C19.99259546 19.11758903 19.98672799 22.63571994 19.97998047 26.15405273 C19.98132673 28.59021036 19.98326693 31.02636772 19.98577881 33.46252441 C19.98873191 38.57375643 19.98442643 43.68491866 19.97509766 48.79614258 C19.96370308 55.36053777 19.97026155 61.92476944 19.98224258 68.48915863 C19.98945615 73.52131389 19.98717556 78.55343014 19.981987 83.58558655 C19.98064911 86.00659708 19.98230306 88.42761111 19.98694611 90.84861755 C19.99200304 94.22721799 19.9843127 97.60555047 19.97314453 100.98413086 C19.97719299 101.99302872 19.98124146 103.00192657 19.9854126 104.04139709 C19.97977295 104.9583989 19.9741333 105.8754007 19.96832275 106.82019043 C19.96719168 108.01923382 19.96719168 108.01923382 19.96603775 109.24250031 C19.71435547 111.18530273 19.71435547 111.18530273 17.71435547 113.18530273 C15.27690649 113.36018528 12.95499467 113.41707678 10.51904297 113.38061523 C9.81159943 113.37778534 9.10415588 113.37495544 8.37527466 113.37203979 C6.11313037 113.36083411 3.85138032 113.33572952 1.58935547 113.31030273 C0.0568091 113.3002734 -1.47574347 113.29114747 -3.00830078 113.28295898 C-6.76756754 113.2608936 -10.52653917 113.22636169 -14.28564453 113.18530273 C-15.27564453 116.15530273 -16.26564453 119.12530273 -17.28564453 122.18530273 C-16.48126953 122.30905273 -15.67689453 122.43280273 -14.84814453 122.56030273 C-14.00251953 122.76655273 -13.15689453 122.97280273 -12.28564453 123.18530273 C-10.13539209 127.48580762 -11.05867275 133.21257656 -11.04541016 137.98876953 C-11.03569708 140.11131875 -11.00467026 142.23290241 -10.97314453 144.35522461 C-10.96661498 145.70352615 -10.96136432 147.05183462 -10.95751953 148.40014648 C-10.94817383 149.62854248 -10.93882813 150.85693848 -10.92919922 152.12255859 C-11.28564453 155.18530273 -11.28564453 155.18530273 -12.52088928 156.85291481 C-14.78360476 158.56126206 -16.05883805 158.56236129 -18.87817383 158.56625366 C-19.8203476 158.57471313 -20.76252136 158.58317261 -21.73324585 158.59188843 C-23.28092148 158.58277939 -23.28092148 158.58277939 -24.85986328 158.57348633 C-26.49189194 158.58137177 -26.49189194 158.58137177 -28.15689087 158.5894165 C-31.7624537 158.60264764 -35.36757701 158.59386711 -38.97314453 158.58374023 C-41.4727385 158.58576007 -43.97233189 158.58867074 -46.47192383 158.59243774 C-51.71423855 158.59686532 -56.95643841 158.59070101 -62.19873047 158.57641602 C-68.26036202 158.56008915 -74.32169087 158.56537759 -80.38331509 158.58189523 C-86.21339317 158.59714633 -92.04335614 158.59553625 -97.8734436 158.58675003 C-100.35503176 158.58474475 -102.83662761 158.58721873 -105.31820679 158.59418869 C-108.78282313 158.60178347 -112.24685325 158.59022603 -115.71142578 158.57348633 C-116.74320953 158.57955902 -117.77499329 158.58563171 -118.83804321 158.59188843 C-119.78021698 158.58342896 -120.72239075 158.57496948 -121.69311523 158.56625366 C-122.51237991 158.56512259 -123.33164459 158.56399151 -124.17573547 158.56282616 C-126.81536181 158.09052108 -127.7006745 157.32035166 -129.28564453 155.18530273 C-129.67382812 152.13842773 -129.67382812 152.13842773 -129.68408203 148.43530273 C-129.68695221 147.78078125 -129.68982239 147.12625977 -129.69277954 146.4519043 C-129.69481821 145.07005954 -129.68930199 143.6881858 -129.67675781 142.30639648 C-129.66069889 140.19245823 -129.67661054 138.0804316 -129.69580078 135.96655273 C-129.69381831 134.62279852 -129.68997455 133.27904549 -129.68408203 131.93530273 C-129.68069824 130.71327148 -129.67731445 129.49124023 -129.67382812 128.23217773 C-129.28564453 125.18530273 -129.28564453 125.18530273 -127.99121094 123.27514648 C-125.21925676 121.50388919 -122.47454477 122.00479895 -119.28564453 122.18530273 C-119.31787109 120.88334961 -119.35009766 119.58139648 -119.38330078 118.23999023 C-119.34700703 91.6833369 -105.22089327 62.96463905 -88.28564453 43.18530273 C-87.8513916 42.66887207 -87.41713867 42.15244141 -86.96972656 41.62036133 C-73.16319758 25.30172003 -55.20304467 13.83361388 -34.28564453 9.18530273 C-33.47224609 8.9906543 -32.65884766 8.79600586 -31.82080078 8.59545898 C-28.674518 8.08643018 -25.65863304 8.09062608 -22.47314453 8.12280273 C-21.31169922 8.13182617 -20.15025391 8.14084961 -18.95361328 8.15014648 C-18.07318359 8.16174805 -17.19275391 8.17334961 -16.28564453 8.18530273 C-16.10001953 6.48374023 -16.10001953 6.48374023 -15.91064453 4.74780273 C-15.70439453 3.57217773 -15.49814453 2.39655273 -15.28564453 1.18530273 C-10.8799275 -1.01755578 -4.89985645 -0.00054674 0 0 Z " fill="#000000" transform="translate(129.28564453125,151.814697265625)"/>
<path d="M0 0 C33.66 0 67.32 0 102 0 C102.37168354 38.49835391 102.37168354 38.49835391 102.50195312 54.59570312 C102.59214589 65.72316319 102.68551999 76.85053372 102.79907227 87.9777832 C102.88174698 96.08066915 102.95387208 104.18356788 103.01323253 112.28665942 C103.04504609 116.57877282 103.08220719 120.87069204 103.13199425 125.16263771 C103.17866183 129.20001835 103.21125298 133.23726482 103.2329216 137.27485466 C103.2433903 138.75880672 103.25905819 140.24273234 103.28024101 141.72657013 C103.30833739 143.74850161 103.31612596 145.77068523 103.32279968 147.7928009 C103.33293941 148.92568448 103.34307913 150.05856806 103.35352612 151.22578144 C103 154 103 154 101.73406029 155.86456108 C99.62536974 157.24530276 98.44275769 157.37480887 95.93223572 157.3742218 C94.69350456 157.38474327 94.69350456 157.38474327 93.42974854 157.39547729 C92.52730408 157.38783356 91.62485962 157.38018982 90.69506836 157.37231445 C89.26545525 157.37779045 89.26545525 157.37779045 87.80696106 157.38337708 C84.65107504 157.39149487 81.49570044 157.37786308 78.33984375 157.36328125 C76.15173849 157.36276283 73.96363275 157.36327981 71.77552795 157.36479187 C67.18809056 157.36470209 62.60082872 157.35426079 58.01342773 157.33618164 C52.12276569 157.31348101 46.23235998 157.31295224 40.34166622 157.31969929 C35.82334602 157.32303476 31.30508465 157.31641737 26.78677559 157.30657005 C24.61417511 157.30271148 22.4415681 157.30157254 20.26896477 157.3031559 C17.23769448 157.30352525 14.20675751 157.29094327 11.17553711 157.2746582 C10.27106842 157.27713562 9.36659973 157.27961304 8.4347229 157.28216553 C2.2287413 157.2287413 2.2287413 157.2287413 0 155 C-0.24609566 152.3332119 -0.24609566 152.3332119 -0.24050903 148.87509155 C-0.24325836 147.56814835 -0.24600769 146.26120514 -0.24884033 144.91465759 C-0.24176153 143.45791535 -0.23449191 142.00117403 -0.22705078 140.54443359 C-0.2264869 139.01706449 -0.22680278 137.48969484 -0.22793579 135.96232605 C-0.22851121 131.80757114 -0.21672645 127.65293097 -0.20278788 123.4982028 C-0.19031189 119.15934037 -0.1891125 114.8204755 -0.18673706 110.4815979 C-0.18051306 102.26159304 -0.16408983 94.04164118 -0.14403808 85.82165968 C-0.1175348 74.71663321 -0.10671387 63.61159231 -0.09503365 52.50654221 C-0.07620985 35.00432175 -0.03637033 17.50221315 0 0 Z " fill="#000000" transform="translate(402,322)"/>
<path d="M0 0 C33.66 0 67.32 0 102 0 C102.08060607 38.78943138 102.08060607 38.78943138 102.09765625 55 C102.10953987 66.20867739 102.12353662 77.4173248 102.15087891 88.62597656 C102.17077955 96.78788958 102.18370852 104.94977835 102.18817699 113.11171496 C102.19079003 117.43556444 102.19695423 121.75934454 102.21146011 126.08317184 C102.22499157 130.14932749 102.22923169 134.21538488 102.22621536 138.2815609 C102.22676752 139.77717942 102.23077133 141.27280108 102.23841095 142.76840019 C102.24830232 144.80394007 102.2447911 146.83953215 102.24050903 148.87509155 C102.24235262 150.01627127 102.24419621 151.15745098 102.24609566 152.3332119 C102 155 102 155 100 157 C96.91222523 157.20426709 93.91377308 157.28312009 90.82446289 157.2746582 C89.8731398 157.27976913 88.92181671 157.28488007 87.94166565 157.29014587 C84.78526585 157.30408835 81.62908325 157.3030816 78.47265625 157.30078125 C76.28551654 157.30466565 74.09837759 157.30899978 71.91123962 157.31376648 C67.32206784 157.32123873 62.73297298 157.32093015 58.14379883 157.31567383 C52.25428035 157.30987816 46.36507625 157.32680785 40.47560978 157.3500185 C35.95725148 157.36472949 31.43896935 157.36563113 26.92059135 157.36250877 C24.74880793 157.36302332 22.57702039 157.36828594 20.40526009 157.37832069 C17.37160775 157.39061659 14.33857361 157.38393453 11.30493164 157.37231445 C10.40248718 157.37995819 9.50004272 157.38760193 8.57025146 157.39547729 C7.33152031 157.38495583 7.33152031 157.38495583 6.06776428 157.3742218 C5.3504416 157.37438954 4.63311892 157.37455729 3.89405918 157.37473011 C1.30537136 156.86257121 0.48393504 156.18563925 -1 154 C-1.35352612 151.22578144 -1.35352612 151.22578144 -1.32279968 147.7928009 C-1.31850952 146.49289719 -1.31421936 145.19299347 -1.30979919 143.85369873 C-1.28973825 142.41003028 -1.26938856 140.96636581 -1.2487793 139.52270508 C-1.23807283 138.00504908 -1.22869546 136.48738321 -1.22055054 134.9697113 C-1.19464007 130.84585717 -1.15008753 126.72238823 -1.10225272 122.59873796 C-1.05542721 118.29065551 -1.02565535 113.98245656 -0.99409485 109.67424011 C-0.93171655 101.51436409 -0.85394317 93.3547099 -0.77067453 85.19502324 C-0.65905232 74.17003127 -0.57113806 63.14485212 -0.48191547 52.11966038 C-0.34069226 34.74622286 -0.16773056 17.37324863 0 0 Z " fill="#000000" transform="translate(8,322)"/>
<path d="M0 0 C13.2 0 26.4 0 40 0 C40 23.1 40 46.2 40 70 C26.8 70 13.6 70 0 70 C0 46.9 0 23.8 0 0 Z " fill="#000000" transform="translate(161,173)"/>
<path d="M0 0 C5.82485779 3.51996782 10.54466582 8.98962934 12.5625 15.5 C13.36764105 23.33608208 13.68710392 31.11922577 8.5625 37.5 C3.75801361 42.54521222 -0.59927055 46.10562995 -7.70703125 46.8359375 C-16.22326573 46.92983204 -22.11345494 46.6177288 -28.40234375 40.62890625 C-34.7841668 33.72505269 -35.91792252 28.29832071 -35.7421875 18.9453125 C-35.04689797 11.08319245 -31.38995981 6.95041296 -25.53515625 1.9453125 C-18.47077988 -2.92213491 -7.84396301 -3.47595223 0 0 Z " fill="#000000" transform="translate(277.4375,59.5)"/>
<path d="M0 0 C7.26 0 14.52 0 22 0 C22 23.1 22 46.2 22 70 C14.74 70 7.48 70 0 70 C0 46.9 0 23.8 0 0 Z " fill="#000000" transform="translate(329,173)"/>
</svg>
