<?xml version="1.0" encoding="UTF-8"?>
<svg version="1.1" xmlns="http://www.w3.org/2000/svg" width="500" height="500">
<path d="M0 0 C0.60134766 0.43151367 1.20269531 0.86302734 1.82226562 1.30761719 C20.5027918 14.79702227 37.78885231 29.78251812 52 48 C52.78890625 48.98355469 53.5778125 49.96710938 54.390625 50.98046875 C80.92618249 84.3390051 97.36980853 124.02260026 104 166 C104.11859375 166.73234863 104.2371875 167.46469727 104.359375 168.21923828 C113.65155732 228.49397447 97.46947343 293.77739985 61.81640625 343.015625 C53.50190713 354.25532919 44.58117208 364.83339117 35 375 C33.96552734 376.09828125 33.96552734 376.09828125 32.91015625 377.21875 C27.66042694 382.62951395 21.90861498 387.32915812 16 392 C14.51693359 393.19109375 14.51693359 393.19109375 13.00390625 394.40625 C-20.50041262 420.8416177 -59.93602714 437.35613459 -102 444 C-102.73234863 444.11859375 -103.46469727 444.2371875 -104.21923828 444.359375 C-164.49397447 453.65155732 -229.77739985 437.46947343 -279.015625 401.81640625 C-290.25532919 393.50190713 -300.83339117 384.58117208 -311 375 C-311.7321875 374.31035156 -312.464375 373.62070312 -313.21875 372.91015625 C-318.62951395 367.66042694 -323.32915812 361.90861498 -328 356 C-328.7940625 355.01128906 -329.588125 354.02257812 -330.40625 353.00390625 C-356.8416177 319.49958738 -373.35613459 280.06397286 -380 238 C-380.11859375 237.26765137 -380.2371875 236.53530273 -380.359375 235.78076172 C-389.37799278 177.2805312 -374.55578059 112.10946131 -340 64 C-339.56848633 63.39865234 -339.13697266 62.79730469 -338.69238281 62.17773438 C-325.20297773 43.4972082 -310.21748188 26.21114769 -292 12 C-291.01644531 11.21109375 -290.03289062 10.4221875 -289.01953125 9.609375 C-255.6609949 -16.92618249 -215.97739974 -33.36980853 -174 -40 C-173.26765137 -40.11859375 -172.53530273 -40.2371875 -171.78076172 -40.359375 C-113.2805312 -49.37799278 -48.10946131 -34.55578059 0 0 Z " fill="#000000" transform="translate(388,48)"/>
<path d="M0 0 C3.97727877 0.86564932 6.99765037 2.67017836 10.375 4.875 C11.29647827 5.47501831 11.29647827 5.47501831 12.23657227 6.0871582 C39.24121612 23.96521667 61.14984393 47.81863126 77 76 C77.51771973 76.90202148 77.51771973 76.90202148 78.04589844 77.82226562 C89.86891113 98.49311036 97.28096814 121.5282294 101 145 C101.30744141 146.73443359 101.30744141 146.73443359 101.62109375 148.50390625 C103.18269515 157.97044161 103 166.08974332 103 176 C55.81 176 8.62 176 -40 176 C-40.66 171.71 -41.32 167.42 -42 163 C-45.24934122 148.30866575 -53.36965785 134.9105195 -66 126.4375 C-67.32505978 125.61157591 -68.65538758 124.79369483 -70 124 C-69.32986605 120.6085822 -68.02453945 117.9887225 -66.33203125 114.984375 C-65.4978064 113.49756226 -65.4978064 113.49756226 -64.64672852 111.98071289 C-64.04143311 110.91457764 -63.4361377 109.84844238 -62.8125 108.75 C-61.87071899 107.08022095 -61.87071899 107.08022095 -60.90991211 105.37670898 C-55.54697604 95.89739329 -50.0700557 86.48571542 -44.5625 77.08984375 C-40.86786684 70.78429571 -37.21148529 64.45704876 -33.5625 58.125 C-32.94286377 57.04992187 -32.32322754 55.97484375 -31.68481445 54.8671875 C-30.42594017 52.68255042 -29.16723324 50.4978169 -27.90869141 48.31298828 C-24.69121331 42.72828916 -21.4706855 37.14534985 -18.25 31.5625 C-17.63189453 30.4909668 -17.01378906 29.41943359 -16.37695312 28.31542969 C-10.92799198 18.871144 -5.46706609 9.43381467 0 0 Z " fill="#F0CC42" transform="translate(351,74)"/>
<path d="M0 0 C0.40613525 0.7120459 0.81227051 1.4240918 1.23071289 2.15771484 C10.49191534 18.39045455 19.7907986 34.60059805 29.14111328 50.78222656 C31.63731251 55.10320185 34.13091163 59.42567458 36.62426758 63.74829102 C37.86995482 65.90777408 39.11588394 68.06711765 40.36206055 70.22631836 C43.56572841 75.77746892 46.76602683 81.33052286 49.9609375 86.88671875 C51.26551777 89.15370754 52.57020356 91.42063562 53.875 93.6875 C54.49834229 94.77168213 55.12168457 95.85586426 55.76391602 96.97290039 C59.59554242 103.62022659 63.47666598 110.23314928 67.56396484 116.72729492 C69.22341839 119.41769518 70 120.76468929 70 124 C67.83984375 125.76171875 67.83984375 125.76171875 64.9375 127.6875 C53.48055933 135.77043765 45.46266612 147.33158109 42 161 C41.01 168.425 41.01 168.425 40 176 C-7.19 176 -54.38 176 -103 176 C-103 165.40769124 -102.97904201 156.10959564 -101.25 145.875 C-101.06735596 144.75464355 -100.88471191 143.63428711 -100.6965332 142.47998047 C-99.2917016 134.13799975 -97.58592509 126.06603125 -95 118 C-94.64663574 116.8847998 -94.64663574 116.8847998 -94.28613281 115.74707031 C-86.34030244 90.97242981 -74.64095233 68.07971795 -58 48 C-57.51354004 47.41202637 -57.02708008 46.82405273 -56.52587891 46.21826172 C-47.48417096 35.35615274 -38.12031776 25.7799633 -27 17 C-26.21568604 16.37641602 -26.21568604 16.37641602 -25.41552734 15.74023438 C-5.57303917 0 -5.57303917 0 0 0 Z " fill="#F0CC42" transform="translate(149,74)"/>
<path d="M0 0 C1.03447266 0.43119141 1.03447266 0.43119141 2.08984375 0.87109375 C5.21368156 2.08289123 8.35759286 3.08580176 11.5625 4.0625 C12.67753906 4.40410156 13.79257813 4.74570312 14.94140625 5.09765625 C16.45541016 5.54431641 16.45541016 5.54431641 18 6 C18.64324219 6.19851563 19.28648437 6.39703125 19.94921875 6.6015625 C33.43303341 9.22127506 47.9663431 6.15798571 60 0 C60.66 0 61.32 0 62 0 C62.3810791 0.66193359 62.7621582 1.32386719 63.15478516 2.00585938 C64.97750122 5.17097015 66.80097008 8.33564627 68.625 11.5 C68.96290558 12.08622131 69.30081116 12.67244263 69.6489563 13.27642822 C74.3855068 21.49146796 79.14840099 29.6904478 83.9375 37.875 C89.35796315 47.14259107 94.6994045 56.45359644 100.01519775 65.78140259 C104.73819285 74.06692689 109.50135592 82.32774765 114.3125 90.5625 C115.1624353 92.02187988 115.1624353 92.02187988 116.02954102 93.51074219 C118.77363032 98.2171721 121.53996951 102.90776685 124.3515625 107.57421875 C124.87322998 108.44941162 125.39489746 109.32460449 125.93237305 110.22631836 C126.90799905 111.86217335 127.89328242 113.49232238 128.88989258 115.11547852 C129.31681396 115.83533936 129.74373535 116.5552002 130.18359375 117.296875 C130.56056396 117.91916992 130.93753418 118.54146484 131.32592773 119.18261719 C132.20415651 121.55043139 131.97999697 122.69143658 131 125 C128.66415273 126.47511189 126.48815307 127.65488831 124 128.8125 C123.27868896 129.15724365 122.55737793 129.5019873 121.81420898 129.85717773 C119.55164455 130.92515516 117.27806344 131.96555053 115 133 C114.33371582 133.30873047 113.66743164 133.61746094 112.98095703 133.93554688 C93.67513995 142.79151516 73.06256085 147.75729829 52 150 C51.19876709 150.0928125 50.39753418 150.185625 49.57202148 150.28125 C10.22492508 154.62257085 -29.09779682 145.91203159 -64.125 127.94140625 C-65.49011719 127.24253296 -65.49011719 127.24253296 -66.8828125 126.52954102 C-69 125 -69 125 -69.98657227 123.1706543 C-70.00647323 119.95357258 -68.71059235 118.09001066 -67.08984375 115.328125 C-66.43685303 114.20132324 -65.7838623 113.07452148 -65.11108398 111.91357422 C-64.38677402 110.69225348 -63.6622403 109.47106542 -62.9375 108.25 C-62.19817083 106.98389445 -61.45998401 105.71712119 -60.72290039 104.44970703 C-58.8479144 101.23153536 -56.95939386 98.02153814 -55.06738281 94.81335449 C-53.48378745 92.12301723 -51.91354318 89.42497084 -50.34375 86.7265625 C-48.06468296 82.80967943 -45.78059311 78.89580916 -43.4921875 74.984375 C-39.82618393 68.71102202 -36.19131076 62.41992381 -32.5625 56.125 C-31.94342773 55.05113037 -31.32435547 53.97726074 -30.68652344 52.87084961 C-28.13677204 48.44649504 -25.58817919 44.02147413 -23.04003906 39.59619141 C-15.41896137 26.36226744 -7.77896467 13.14187444 0 0 Z " fill="#F0CC42" transform="translate(219,303)"/>
<path d="M0 0 C9.73252169 8.31319561 14.92237534 17.43149834 16.3203125 30.09765625 C16.84363767 40.87815478 13.0399902 51.57479691 6.0625 59.76171875 C0.7467854 65.37832285 -4.60631412 69.26543682 -11.9375 71.76171875 C-12.59492188 71.98601562 -13.25234375 72.2103125 -13.9296875 72.44140625 C-24.0011434 75.39408208 -34.22674607 73.99936319 -43.609375 69.47265625 C-54.9354853 63.05452708 -61.56112597 54.32751008 -65.3125 41.76171875 C-67.62333326 30.13533889 -65.40591804 20.08830269 -59.25 10.07421875 C-52.55607357 0.66562694 -43.65313519 -5.78184802 -32.2734375 -7.91796875 C-20.72567445 -9.50144128 -9.50148813 -6.93399042 0 0 Z " fill="#EFCB42" transform="translate(274.9375,217.23828125)"/>
</svg>
