<?xml version="1.0" encoding="UTF-8"?>
<svg version="1.1" xmlns="http://www.w3.org/2000/svg" width="512" height="512">
<path d="M0 0 C47.52 0 95.04 0 144 0 C144.33 17.82 144.66 35.64 145 54 C145.29308992 69.29929357 145.82998746 84.14338943 147.71020508 99.29248047 C147.7967295 99.99909939 147.88325393 100.7057183 147.97240031 101.43374991 C149.88406344 116.96396846 152.35480444 132.38705336 154.95548987 147.81448221 C155.59469322 151.61669067 156.22511351 155.4203574 156.85664368 159.22384644 C158.05483623 166.4326278 159.26014528 173.6401983 160.4683817 180.84730232 C161.94246865 189.64201638 163.40791386 198.43816565 164.87304688 207.234375 C165.39872839 210.38971694 165.92447229 213.54504848 166.45022583 216.70037842 C166.57957335 217.47671843 166.70892086 218.25305845 166.842188 219.05292392 C167.74564239 224.47496829 168.65007971 229.89684815 169.55490112 235.31866455 C172.61229728 253.64122801 175.66089021 271.96519763 178.67215919 290.29540634 C179.06692318 292.69706424 179.46249648 295.09858926 179.85892296 297.4999733 C180.3963707 300.75724578 180.93073559 304.01500783 181.46411133 307.27294922 C181.62184084 308.22571621 181.77957035 309.1784832 181.94207954 310.16012192 C182.15351254 311.45841116 182.15351254 311.45841116 182.36921692 312.78292847 C182.55333744 313.90430615 182.55333744 313.90430615 182.74117756 315.04833794 C183 317 183 317 183 320 C109.74 320 36.48 320 -39 320 C-37.21368787 307.49581507 -35.41373693 295.01964531 -33.36791992 282.55981445 C-33.12088585 281.04542808 -32.87403013 279.5310126 -32.62733459 278.01657104 C-31.96792267 273.97195202 -31.30591322 269.92776251 -30.64325118 265.88367486 C-29.94011148 261.59039907 -29.23907271 257.29678009 -28.53767395 253.0032196 C-27.35825933 245.78567008 -26.1770802 238.56841097 -24.99487305 231.35131836 C-23.64441277 223.10691407 -22.29699084 214.86201758 -20.95118636 206.6168521 C-19.78152204 199.45136236 -18.61011982 192.28615817 -17.4373768 185.12117165 C-16.74329875 180.88062505 -16.0497393 176.63999583 -15.35777855 172.39910316 C-12.34161428 153.91870316 -9.25221343 135.45586991 -5.93470287 117.02685261 C0.98897602 78.4497539 -0.72351378 39.06974418 0 0 Z M27 144 C25.2708156 146.33063984 24.94686372 147.37320882 25.19140625 150.2578125 C26.24751493 153.83939847 28.04449332 156.02252871 30.375 158.9375 C30.81835693 159.49816162 31.26171387 160.05882324 31.71850586 160.63647461 C32.65966555 161.82540328 33.60466921 163.01129777 34.55322266 164.19433594 C36.44851427 166.55977245 38.3231333 168.94109754 40.19580078 171.32446289 C41.06286136 172.42710745 41.93207471 173.52806531 42.80419922 174.62670898 C47.31614139 180.33165404 51.64914477 186.17196936 56 192 C55.4097554 191.99555878 54.8195108 191.99111755 54.21138 191.98654175 C48.06322655 191.94226443 41.91511847 191.91211524 35.7668457 191.89013672 C33.47288167 191.88008472 31.17893043 191.8664411 28.88500977 191.84912109 C25.58606812 191.82483791 22.28729603 191.81350877 18.98828125 191.8046875 C17.96414627 191.79436493 16.94001129 191.78404236 15.88484192 191.77340698 C14.44391426 191.77318039 14.44391426 191.77318039 12.97387695 191.77294922 C11.71145927 191.76628738 11.71145927 191.76628738 10.42353821 191.75949097 C6.5095416 192.14791131 3.78287869 193.21712131 1 196 C-0.80440357 213.20477819 4.30297819 229.67480568 14.9375 243.3125 C16.27522247 244.88910148 17.62834086 246.45283329 19 248 C19.53109375 248.62519531 20.0621875 249.25039063 20.609375 249.89453125 C27.51222206 257.46374226 38.14658143 264.07283382 48 267 C50.96485361 266.93554666 52.20326963 266.64798627 54.47509766 264.80029297 C56.45944842 262.45757722 57.38273335 260.10801637 58.5234375 257.2578125 C58.9875 256.10796875 59.4515625 254.958125 59.9296875 253.7734375 C60.40664062 252.56945312 60.88359375 251.36546875 61.375 250.125 C61.84421875 248.9596875 62.3134375 247.794375 62.796875 246.59375 C65.61428749 239.57356749 68.34228395 232.52441589 71.00634766 225.44482422 C72 223 72 223 73 222 C73.43868408 223.12494873 73.87736816 224.24989746 74.3293457 225.40893555 C75.96297851 229.59464375 77.6025499 233.77800462 79.24389648 237.96069336 C79.95254298 239.76898047 80.65959201 241.57789447 81.36499023 243.38745117 C82.38102439 245.99305251 83.40284139 248.59632206 84.42578125 251.19921875 C84.8947155 252.40731453 84.8947155 252.40731453 85.37312317 253.63981628 C88.27847068 261.34512135 88.27847068 261.34512135 94 267 C105.74729777 266.19830419 116.92834344 256.89794802 125 249 C136.06241965 236.27728465 143.25680574 220.26700419 143.4375 203.3125 C143.44765137 202.62897461 143.45780273 201.94544922 143.46826172 201.24121094 C143.41828118 198.44370853 143.30836702 196.45736393 141.72265625 194.10546875 C138.39324885 191.96891026 135.01568421 191.87627452 131.13964844 191.88647461 C130.17895447 191.88655014 129.2182605 191.88662567 128.22845459 191.88670349 C127.19915833 191.89186478 126.16986206 191.89702606 125.109375 191.90234375 C123.51974945 191.90446617 123.51974945 191.90446617 121.89801025 191.90663147 C118.51531138 191.91222618 115.13267885 191.92477775 111.75 191.9375 C109.45573012 191.94251568 107.16145921 191.94707847 104.8671875 191.95117188 C99.24476906 191.96219389 93.62238927 191.97892679 88 192 C98.21898184 178.68488836 98.21898184 178.68488836 102.3347168 173.48852539 C103.66519334 171.80777028 104.98512236 170.11901962 106.3046875 168.4296875 C108.0764901 166.16336877 109.87514911 163.92291554 111.6953125 161.6953125 C112.52655249 160.65144823 113.35730558 159.60719601 114.1875 158.5625 C115.29158203 157.20318359 115.29158203 157.20318359 116.41796875 155.81640625 C118.40768796 152.27421478 118.47362081 150.00467499 118 146 C113.93444124 141.22296846 108.75694964 138.64577628 103.25 135.8125 C102.60740234 135.47935791 101.96480469 135.14621582 101.30273438 134.80297852 C91.98879839 130.22316603 82.89972781 128.47197181 72.5625 128.625 C71.04547485 128.64240234 71.04547485 128.64240234 69.49780273 128.66015625 C53.60955145 129.0084761 39.87234448 134.80271949 27 144 Z " fill="#000000" transform="translate(184,168)"/>
<path d="M0 0 C34.32 0 68.64 0 104 0 C104 6.37256123 103.94326156 11.64543939 103.046875 17.7890625 C102.8946347 18.8477504 102.8946347 18.8477504 102.73931885 19.92782593 C102.52402191 21.41558295 102.3053807 22.90285963 102.08349609 24.38964844 C101.7580155 26.57127388 101.44244375 28.75412984 101.12890625 30.9375 C99.94629098 39.08728747 98.64656343 47.21515285 97.28271484 55.33642578 C96.92483224 57.47595325 96.56713761 59.61551217 96.20959473 61.75509644 C96.01566635 62.91542263 95.82173798 64.07574883 95.62193298 65.27123642 C94.47260241 72.16198204 93.33202369 79.05417747 92.19091797 85.94628906 C91.93518439 87.49059644 91.67944897 89.03490351 91.42371178 90.57921028 C90.75241765 94.63317129 90.08126349 98.68715546 89.41013098 102.74114323 C88.69849782 107.03958316 87.98670768 111.3379971 87.27493286 115.63641357 C85.93154658 123.74926729 84.58827659 131.86214025 83.24506009 139.97502208 C80.83696387 154.51965522 78.42872247 169.06426433 76.02035248 183.60885215 C75.17786107 188.69684558 74.33543923 193.78485053 73.49307609 198.8728652 C72.96858251 202.04082398 72.44403705 205.20877417 71.91947937 208.37672234 C71.67840993 209.83267538 71.43736206 211.288632 71.19633865 212.74459267 C71.02707933 213.76703607 71.02707933 213.76703607 70.85440063 214.81013489 C70.74488705 215.47187666 70.63537346 216.13361844 70.52254128 216.815413 C70.21069918 218.69748603 69.89763485 220.57935643 69.58452988 222.46121979 C69.19447662 224.82262644 68.81062794 227.18506623 68.4329567 229.5484848 C68.25810619 230.63372688 68.08325569 231.71896896 67.90310669 232.83709717 C67.75209566 233.78874126 67.60108463 234.74038536 67.44549751 235.72086716 C67 238 67 238 66 240 C31.68 240 -2.64 240 -38 240 C-36.82658193 233.54620061 -35.6757721 227.26199105 -34.06396484 220.93457031 C-33.88145172 220.20557022 -33.6989386 219.47657013 -33.51089478 218.72547913 C-33.11846382 217.1593279 -32.72451125 215.59355727 -32.32914352 214.02814484 C-31.69263314 211.50558277 -31.06152625 208.98172054 -30.43179321 206.4574585 C-28.64171292 199.28465271 -26.84511872 192.11350168 -25.03857422 184.94482422 C-20.17482451 165.63054416 -15.49207242 146.30865678 -11.5 126.79296875 C-11.33631298 125.99531853 -11.17262596 125.1976683 -11.00397873 124.37584686 C-4.4160429 92.10436294 -1.90325567 59.88880578 -0.875 27 C-0.441875 13.635 -0.441875 13.635 0 0 Z " fill="#000000" transform="translate(64,248)"/>
<path d="M0 0 C34.32 0 68.64 0 104 0 C104.4021875 13.1175 104.4021875 13.1175 104.8125 26.5 C106.99563516 90.48626494 119.86230174 150.27515752 136.04858398 212.02392578 C136.36246063 213.2216008 136.67633728 214.41927582 136.99972534 215.65324402 C137.58703712 217.89032647 138.17611908 220.1269453 138.7673645 222.36299133 C139.03241791 223.37040878 139.29747131 224.37782623 139.57055664 225.41577148 C139.91383751 226.71417213 139.91383751 226.71417213 140.26405334 228.0388031 C141.25054098 232.00809096 142.11274637 236.00735865 143 240 C108.68 240 74.36 240 39 240 C37.64761525 235.26665338 36.56373666 231.00160246 35.76811218 226.20321655 C35.65967525 225.5561615 35.55123831 224.90910646 35.43951541 224.24244368 C35.08042113 222.09372817 34.72710013 219.94410537 34.3737793 217.79443359 C34.11594167 216.24435681 33.85774312 214.69434003 33.59921265 213.14437866 C32.89913697 208.94109226 32.20404149 204.7369957 31.50978446 200.53274488 C30.77711289 196.10153716 30.03966061 191.67112525 29.3026886 187.2406311 C27.90305911 178.82214647 26.50741834 170.40300593 25.11334115 161.98360026 C23.08495968 149.73429628 21.05117177 137.48588987 19.01674366 125.23758888 C18.86572608 124.32837256 18.7147085 123.41915623 18.55911463 122.4823879 C18.25708455 120.66399436 17.95504361 118.84560263 17.65299159 117.02721274 C16.78319246 111.79005717 15.91470789 106.55268587 15.04738957 101.31511891 C12.30069645 84.73036147 9.53793662 68.14938487 6.65336895 51.58795738 C5.29800186 43.79633295 4.00641168 35.99568103 2.75 28.1875 C2.50644886 26.70582053 2.50644886 26.70582053 2.25797749 25.19420815 C0.9410268 16.72949857 0.54172323 8.66757175 0 0 Z " fill="#000000" transform="translate(344,248)"/>
<path d="M0 0 C7.61405403 4.46413031 12.56644694 10.171444 15.6171875 18.46484375 C16.57320254 22.29383181 16.94177447 26.07766405 17.3125 30 C18.19654697 39.09347975 20.31601043 45.91866726 27.125 52.375 C36.4825772 59.83291867 46.2833523 60.65474617 57.84521484 60.62597656 C59.21275658 60.62877876 59.21275658 60.62877876 60.60792542 60.63163757 C62.57488093 60.63562046 64.541841 60.63771446 66.50880051 60.63809967 C70.70294988 60.6415417 74.89694787 60.66293364 79.09104347 60.68333054 C86.88461047 60.7212171 94.67800981 60.75261479 102.47167969 60.75048828 C107.90817194 60.74969904 113.34410026 60.77314902 118.7804451 60.8123703 C120.84314053 60.82279276 122.90590133 60.82438219 124.96860886 60.81671906 C146.05939415 60.74616181 146.05939415 60.74616181 153.375 66.5 C155.62890625 68.8515625 155.62890625 68.8515625 156.9375 71.125 C157.39253906 71.88039063 157.84757813 72.63578125 158.31640625 73.4140625 C161.67441562 80.0309518 161.50025652 88.37771879 159.57421875 95.43359375 C156.75731687 101.79340314 152.86451713 105.91460414 146.375 108.5 C142.82351036 109.3365971 139.22622637 109.85790621 135.62084961 110.40380859 C128.65158321 111.49905627 123.31503996 113.08060569 118.578125 118.58984375 C114.65092081 124.35909371 113.67143575 129.73390369 112.8515625 136.57421875 C112.00820849 141.75185934 109.5630767 144.37132714 105.875 147.875 C100.70999991 150.27303575 95.9747712 150.25381535 90.375 149.5 C85.37798303 147.17995641 83.11737734 144.19963859 80.375 139.5 C79.44112545 135.73229922 78.87356946 131.99073916 78.28125 128.15625 C76.60574899 121.39647007 72.79771586 117.48403615 67.375 113.5 C63.34886076 111.57139484 59.47266921 110.95203149 55.0625 110.375 C53.80824219 110.20742187 52.55398438 110.03984375 51.26171875 109.8671875 C50.30910156 109.74601562 49.35648438 109.62484375 48.375 109.5 C48.25382813 108.65695313 48.13265625 107.81390625 48.0078125 106.9453125 C47.84023438 105.84960938 47.67265625 104.75390625 47.5 103.625 C47.33757812 102.53445312 47.17515625 101.44390625 47.0078125 100.3203125 C46.61243487 97.38067286 46.61243487 97.38067286 44.375 95.5 C41.25948453 94.4301241 38.31053204 94.36426346 35.03460693 94.34178162 C33.95209656 94.3319928 32.86958618 94.32220398 31.75427246 94.31211853 C30.57175903 94.30636307 29.38924561 94.3006076 28.17089844 94.29467773 C26.9218573 94.28477814 25.67281616 94.27487854 24.38592529 94.26467896 C20.96478879 94.23851044 17.54367537 94.21664047 14.12250042 94.19667697 C10.54569186 94.17479043 6.96892543 94.1474148 3.39215088 94.12062073 C-3.3792258 94.0707299 -10.1506259 94.0257777 -16.92204833 93.98259836 C-24.63181661 93.93319512 -32.34154263 93.87828845 -40.05127001 93.82291877 C-55.90914093 93.70915415 -71.76705075 93.60230312 -87.625 93.5 C-87.72683351 86.95309814 -87.7966467 80.40640229 -87.84472656 73.85888672 C-87.86478046 71.63387418 -87.89203065 69.40891393 -87.92675781 67.18408203 C-87.97554934 63.97675635 -87.99803162 60.77013049 -88.015625 57.5625 C-88.03627014 56.57572266 -88.05691528 55.58894531 -88.07818604 54.57226562 C-88.08055077 47.2119626 -86.51361486 41.994791 -81.80078125 36.29296875 C-75.9871969 31.28377972 -70.3058941 28.50383533 -62.5625 28.125 C-54.53664906 28.88936676 -50.08251802 31.48762908 -44.38671875 37.171875 C-40.30637469 42.56408134 -39.2488175 47.28000587 -39.33203125 53.96484375 C-39.33627609 54.64301651 -39.34052094 55.32118927 -39.34489441 56.01991272 C-39.36152059 58.15953402 -39.39913826 60.29816947 -39.4375 62.4375 C-39.45256778 63.89907482 -39.4662525 65.36066458 -39.47851562 66.82226562 C-39.50880421 70.38218422 -39.56754641 73.94000512 -39.625 77.5 C-34.345 77.5 -29.065 77.5 -23.625 77.5 C-23.64368208 49.25782959 -23.64368208 49.25782959 -36.77734375 25.1953125 C-39.50355588 22.69388319 -42.30872486 21.12429803 -45.625 19.5 C-44.62021956 13.00318102 -41.46898658 7.89707441 -36.4375 3.65625 C-25.79938388 -3.67542462 -11.91038896 -5.53412012 0 0 Z " fill="#000000" transform="translate(295.625,26.5)"/>
<path d="M0 0 C9.31567574 6.48201011 15.06224213 14.70990602 17.8046875 25.6796875 C17.8046875 36.5696875 17.8046875 47.4596875 17.8046875 58.6796875 C-24.4353125 58.6796875 -66.6753125 58.6796875 -110.1953125 58.6796875 C-110.1953125 49.15752673 -108.47387577 42.25130575 -101.8984375 35.2109375 C-94.98411081 28.9943869 -87.61456475 26.2967765 -78.3203125 26.3671875 C-77.61648437 26.36847656 -76.91265625 26.36976562 -76.1875 26.37109375 C-70.86765523 26.46960939 -66.9224819 27.3161028 -62.1953125 29.6796875 C-62.1540625 28.4215625 -62.1128125 27.1634375 -62.0703125 25.8671875 C-61.05700065 17.03888149 -55.92708624 9.45481691 -49.546875 3.46875 C-35.36335646 -7.32203321 -15.43269432 -9.28158484 0 0 Z " fill="#000000" transform="translate(126.1953125,77.3203125)"/>
<path d="M0 0 C47.52 0 95.04 0 144 0 C144 5.28 144 10.56 144 16 C96.48 16 48.96 16 0 16 C0 10.72 0 5.44 0 0 Z " fill="#000000" transform="translate(184,136)"/>
<path d="M0 0 C34.32 0 68.64 0 104 0 C104 5.28 104 10.56 104 16 C69.68 16 35.36 16 0 16 C0 10.72 0 5.44 0 0 Z " fill="#000000" transform="translate(344,216)"/>
<path d="M0 0 C34.32 0 68.64 0 104 0 C104 5.28 104 10.56 104 16 C69.68 16 35.36 16 0 16 C0 10.72 0 5.44 0 0 Z " fill="#000000" transform="translate(64,216)"/>
<path d="M0 0 C-0.60590835 3.2513033 -1.68115293 5.19347605 -3.73828125 7.765625 C-4.30579102 8.48379395 -4.87330078 9.20196289 -5.45800781 9.94189453 C-6.06999023 10.70356934 -6.68197266 11.46524414 -7.3125 12.25 C-8.58607698 13.85562845 -9.85818246 15.46242504 -11.12890625 17.0703125 C-12.09594482 18.29282715 -12.09594482 18.29282715 -13.08251953 19.54003906 C-16.57830876 24.02483308 -19.93603344 28.61528545 -23.2668457 33.22363281 C-24.46458181 34.85113869 -25.72622578 36.43129148 -27 38 C-27.66 38 -28.32 38 -29 38 C-30.87049536 35.68168247 -32.63297664 33.34999947 -34.375 30.9375 C-39.13331134 24.46088931 -44.02706057 18.1257187 -49.07763672 11.87475586 C-50.38832127 10.25244158 -51.69438644 8.62639811 -53 7 C-53.91072266 5.89398438 -53.91072266 5.89398438 -54.83984375 4.765625 C-56 3 -56 3 -56 0 C-54.10667466 -0.81832722 -52.21022267 -1.62942268 -50.3125 -2.4375 C-49.25675781 -2.88996094 -48.20101562 -3.34242188 -47.11328125 -3.80859375 C-32.47436389 -9.41068885 -13.64387607 -7.11018894 0 0 Z " fill="#000000" transform="translate(284,318)"/>
<path d="M0 0 C14.85 0 29.7 0 45 0 C41.6429019 16.78549049 35.59244695 28.39126092 22 39 C19 41 19 41 16 41 C13.71689002 35.48425524 11.43834527 29.96665594 9.1640625 24.44726562 C8.38928283 22.56881492 7.61324493 20.69088268 6.8359375 18.81347656 C5.72066533 16.11918384 4.60989027 13.42307592 3.5 10.7265625 C3.15001953 9.88380768 2.80003906 9.04105286 2.43945312 8.17276001 C2.11912109 7.39210175 1.79878906 6.61144348 1.46875 5.80712891 C1.18451172 5.11873932 0.90027344 4.43034973 0.60742188 3.72109985 C0 2 0 2 0 0 Z " fill="#000000" transform="translate(267,376)"/>
<path d="M0 0 C14.52 0 29.04 0 44 0 C42.875 6.75 42.875 6.75 41.60131836 9.89404297 C41.32110336 10.5943161 41.04088837 11.29458923 40.75218201 12.01608276 C40.45111038 12.75069733 40.15003876 13.48531189 39.83984375 14.2421875 C39.53051407 15.01055939 39.22118439 15.77893127 38.90248108 16.57058716 C37.91982998 19.0077306 36.92881046 21.44136771 35.9375 23.875 C35.26702133 25.5336292 34.59709351 27.19248119 33.92773438 28.8515625 C32.29152095 32.90364816 30.64779724 36.95261189 29 41 C20.77006448 39.16813747 13.70452842 31.75937991 9 25 C0 8.99796334 0 8.99796334 0 0 Z " fill="#000000" transform="translate(200,376)"/>
<path d="M0 0 C4.20796686 -0.14570522 8.41528166 -0.23421087 12.625 -0.3125 C13.81480469 -0.35439453 15.00460937 -0.39628906 16.23046875 -0.43945312 C26.12131513 -0.57759344 26.12131513 -0.57759344 29.7734375 2.39453125 C33.48550637 6.73830307 33.12053719 10.12486013 33.0625 15.625 C33.05798828 16.42679688 33.05347656 17.22859375 33.04882812 18.0546875 C33.03703168 20.03649006 33.01909605 22.01825433 33 24 C29.45861382 24.11681812 25.9177276 24.187455 22.375 24.25 C21.37597656 24.28351563 20.37695312 24.31703125 19.34765625 24.3515625 C13.18689349 24.43316201 9.68766023 24.10828649 5 20 C-0.40113653 14.45288681 0.20048862 7.31783453 0 0 Z " fill="#000000" transform="translate(327,48)"/>
</svg>
