<?xml version="1.0" encoding="UTF-8"?>
<svg version="1.1" xmlns="http://www.w3.org/2000/svg" width="512" height="512">
<path d="M0 0 C21.78 0 43.56 0 66 0 C76.78149849 34.33833424 87.54456743 68.68106246 98.1875 103.0625 C98.41541985 103.79875862 98.64333969 104.53501724 98.8781662 105.29358673 C100.93050142 111.92356861 102.9823506 118.55370086 105.03369141 125.18399048 C109.59840094 139.93745484 114.17253979 154.68798721 118.75 169.4375 C119.30701096 171.23246414 119.30701096 171.23246414 119.87527466 173.06369019 C125.56062071 191.38296357 131.26232666 209.69704358 137 228 C159.3109266 198.75009622 162.10106491 171.67882236 161.39697266 136.10644531 C161.37430061 134.9369827 161.37430061 134.9369827 161.35117054 133.74389458 C161.27420771 130.03888311 161.17216691 126.33780258 161.01817322 122.63516235 C160.97422928 121.32196014 160.93028534 120.00875793 160.88500977 118.65576172 C160.83578873 117.51066132 160.78656769 116.36556091 160.7358551 115.1857605 C161.18928606 109.71708611 163.60761325 105.86274628 167.6875 102.3125 C174.76389703 96.48639534 180.97622043 95.50073351 190 96 C192.96490188 105.15708634 195.75097003 114.36435447 198.375 123.625 C198.64973145 124.56037598 198.92446289 125.49575195 199.20751953 126.45947266 C199.45614746 127.3519873 199.70477539 128.24450195 199.9609375 129.1640625 C200.29810791 130.34669678 200.29810791 130.34669678 200.64208984 131.55322266 C201.57975927 137.96340202 198.76133578 143.12792154 196.03515625 148.72265625 C195.64178574 149.5457579 195.24841522 150.36885956 194.84312439 151.21690369 C193.59000556 153.83557387 192.32666762 156.44914835 191.0625 159.0625 C189.80400054 161.68038113 188.54763667 164.29927122 187.29258728 166.91880798 C186.51263152 168.54496162 185.73031735 170.16998678 184.94532776 171.79371643 C180.63634611 179.57795393 180.63634611 179.57795393 181 188 C189.70711726 202.20112974 202.82038343 213.52082467 218.8671875 218.4921875 C237.66897578 222.96880376 255.76074132 218.85586471 273 211 C273 217.93 273 224.86 273 232 C217.23 232 161.46 232 104 232 C97.4 209.56 90.8 187.12 84 164 C83.01 161.03 82.02 158.06 81 155 C80.27039063 155.57105469 79.54078125 156.14210938 78.7890625 156.73046875 C71.66075608 162.27755332 64.41166486 167.63151873 57.07641602 172.90136719 C51.54485794 176.8774814 46.04356313 180.89207443 40.5625 184.9375 C39.38288696 185.80797974 39.38288696 185.80797974 38.17944336 186.69604492 C35.78579331 188.46335124 33.39277636 190.23151099 31 192 C7.68346988 209.2331305 7.68346988 209.2331305 0.94844055 213.95785522 C-2.84112214 216.63820834 -6.47445722 219.35818666 -9.94458008 222.44384766 C-22.35490788 233.0894233 -32.73900653 233.65110324 -48.625 232.8125 C-50.80711611 232.74710791 -52.98942418 232.68782491 -55.171875 232.63476562 C-60.45219616 232.49334719 -65.72516495 232.27744206 -71 232 C-70.34435346 225.32086145 -68.33104767 219.18879182 -66.30078125 212.8125 C-65.71330043 210.94336872 -65.12582214 209.07423664 -64.53843403 207.20507622 C-63.90627475 205.19696935 -63.27147705 203.18971381 -62.63592529 201.18267822 C-61.28885884 196.92809642 -59.94949889 192.67111449 -58.61181641 188.41357422 C-58.38365486 187.68743612 -58.15549332 186.96129803 -57.92041779 186.21315575 C-57.45323565 184.72626999 -56.98607785 183.23937659 -56.51894379 181.75247574 C-55.8017199 179.47031536 -55.08381558 177.1883699 -54.36578369 174.90646362 C-49.38493566 159.07212636 -44.47201196 143.21691548 -39.56626511 127.35918045 C-38.41198512 123.62852813 -37.25688322 119.89813035 -36.10180664 116.16772461 C-35.64203148 114.68280613 -35.18225872 113.1978869 -34.7224884 111.71296692 C-34.49587839 110.98108469 -34.26926838 110.24920246 -34.0357914 109.49514198 C-33.35445161 107.29448778 -32.67320575 105.09380452 -31.99198914 102.89311218 C-27.41718762 88.11442265 -22.8352336 73.33795596 -18.25 58.5625 C-17.87875 57.36612915 -17.5075 56.1697583 -17.125 54.93713379 C-11.43954579 36.61754692 -5.73190358 18.30511142 0 0 Z M32 3 C28.34396854 13.89866211 24.69276491 24.79892825 21.04776001 35.70128345 C19.3551875 40.76332814 17.66094086 45.82479968 15.96289062 50.88500977 C14.32502957 55.76605807 12.69153706 60.64854801 11.06109619 65.5320797 C10.43748168 67.39736921 9.81228007 69.26212887 9.18548584 71.12635231 C8.30958615 73.73235623 7.43928773 76.34016672 6.5703125 78.94848633 C6.30849182 79.72316254 6.04667114 80.49783875 5.7769165 81.29598999 C4.77655176 84.3145951 4 86.79740897 4 90 C8.32456085 88.43644173 12.17215759 86.24929744 16.1015625 83.89453125 C16.77867279 83.49223801 17.45578308 83.08994476 18.15341187 82.67546082 C19.58489239 81.82399143 21.01534345 80.97078921 22.44482422 80.1159668 C24.59496653 78.83045618 26.74833537 77.55050403 28.90234375 76.27148438 C36.68537502 71.63991627 44.39870148 66.92594152 52 62 C50.54658243 54.89117317 48.54217908 48.08225523 46.3046875 41.18359375 C45.95238068 40.08652603 45.60007385 38.98945831 45.23709106 37.85914612 C44.1201633 34.38403775 42.99767343 30.91075589 41.875 27.4375 C41.11291198 25.06978028 40.35118945 22.70194289 39.58984375 20.33398438 C37.73078848 14.55462158 35.86717346 8.77674477 34 3 C33.34 3 32.68 3 32 3 Z M49.05078125 82.98046875 C48.35993942 83.39033524 47.6690976 83.80020172 46.95732117 84.2224884 C45.49088021 85.0938872 44.02573031 85.96746172 42.56176758 86.84301758 C40.34200504 88.16986359 38.1176853 89.4887819 35.89257812 90.80664062 C34.46586337 91.65577558 33.03942253 92.50537098 31.61328125 93.35546875 C30.95572342 93.74526413 30.29816559 94.13505951 29.62068176 94.53666687 C25.25095322 97.15718452 21.11440928 99.99366123 17 103 C20.76673115 106.15808632 25.03589468 108.11360742 29.4296875 110.23828125 C30.25647003 110.64153122 31.08325256 111.04478119 31.93508911 111.46025085 C33.68749662 112.31369233 35.44093114 113.16502777 37.1953125 114.0144043 C39.83350383 115.2923984 42.46774927 116.57824622 45.1015625 117.86523438 C54.63268007 122.50583697 64.19949604 126.95523468 74 131 C72.79008958 124.2630835 71.14911847 117.83752131 68.99609375 111.34375 C68.71274673 110.47480103 68.42939972 109.60585205 68.13746643 108.71057129 C67.54424827 106.8947204 66.94835044 105.07974287 66.34985352 103.265625 C65.43124016 100.48102448 64.52059379 97.69391534 63.61132812 94.90625 C63.03170336 93.13526822 62.45164119 91.36442953 61.87109375 89.59375 C61.59817001 88.76049194 61.32524628 87.92723389 61.04405212 87.06872559 C59.71692844 82.9567657 59.71692844 82.9567657 58 79 C54.60072322 79 51.90335475 81.27187625 49.05078125 82.98046875 Z M-4 113 C-10.2803293 133.02731863 -16.17653135 153.15922178 -22.00292969 173.32226562 C-23.26829146 177.70094415 -24.53816617 182.07830033 -25.80916595 186.45534515 C-26.79584903 189.85528501 -27.78005383 193.25593833 -28.76350403 196.65681458 C-29.23158218 198.27423072 -29.70047751 199.89141061 -30.17021179 201.50834656 C-30.81850764 203.74116216 -31.46342002 205.97492711 -32.10742188 208.20898438 C-32.65746887 210.10988831 -32.65746887 210.10988831 -33.21862793 212.04919434 C-34.08532573 214.81347651 -34.08532573 214.81347651 -34 217 C-31.24678614 215.69302984 -28.80366726 214.24417133 -26.33984375 212.453125 C-25.2880896 211.69140991 -25.2880896 211.69140991 -24.21508789 210.91430664 C-23.08768188 210.09047485 -23.08768188 210.09047485 -21.9375 209.25 C-21.14529053 208.67435303 -20.35308105 208.09870605 -19.53686523 207.50561523 C-10.66038715 201.04578821 -1.82852479 194.5251184 7 188 C16.30304833 181.12416363 25.61279006 174.26068341 35 167.5 C41.53387652 162.78868521 48.0593294 158.06613638 54.5625 153.3125 C55.39072266 152.71179688 56.21894531 152.11109375 57.07226562 151.4921875 C57.83345703 150.93402344 58.59464844 150.37585938 59.37890625 149.80078125 C60.39319702 149.06081909 60.39319702 149.06081909 61.42797852 148.3059082 C63.13434012 147.06651448 63.13434012 147.06651448 64 145 C57.6552566 141.88744798 51.30951334 138.77694118 44.96313477 135.66772461 C42.81317515 134.61413704 40.66342844 133.56011487 38.51391602 132.50561523 C27.72286384 127.21212921 16.92647771 121.92952921 6.08203125 116.74609375 C5.28778244 116.36332779 4.49353363 115.98056183 3.67521667 115.5861969 C0.00113828 113.67969114 0.00113828 113.67969114 -4 113 Z " fill="#000000" transform="translate(215,224)"/>
<path d="M0 0 C168.96 0 337.92 0 512 0 C512 13.2 512 26.4 512 40 C343.04 40 174.08 40 0 40 C0 26.8 0 13.6 0 0 Z " fill="#000000" transform="translate(0,472)"/>
<path d="M0 0 C1.3530706 0.29694977 2.7015063 0.61521817 4.046875 0.9453125 C4.96887695 1.11699951 5.89087891 1.28868652 6.84082031 1.46557617 C14.89367824 3.12125084 22.81474154 5.38025154 29.046875 10.9453125 C33.40797075 18.85312624 34.23668888 27.94342514 35.20225525 36.7931366 C35.70798471 41.20798912 36.61341932 45.07719121 38.16015625 49.2734375 C45.46103864 70.22762646 34.33806566 88.41231107 25.62890625 107.27539062 C22.00562538 115.15902012 18.73846859 123.18494735 15.46160889 131.21707153 C13.7292617 135.45031384 11.96807928 139.67153672 10.2109375 143.89453125 C6.0399561 153.93964581 1.91662491 164.00410525 -2.203125 174.0703125 C-9.02411145 190.73587481 -15.95352508 207.3540051 -22.953125 223.9453125 C-24.28715382 223.82796737 -25.6203264 223.70089074 -26.953125 223.5703125 C-27.695625 223.50070313 -28.438125 223.43109375 -29.203125 223.359375 C-32.83476367 222.81256577 -36.39020488 221.83604253 -39.953125 220.9453125 C-39.953125 285.2953125 -39.953125 349.6453125 -39.953125 415.9453125 C-37.313125 415.9453125 -34.673125 415.9453125 -31.953125 415.9453125 C-31.953125 429.1453125 -31.953125 442.3453125 -31.953125 455.9453125 C-47.793125 455.9453125 -63.633125 455.9453125 -79.953125 455.9453125 C-79.953125 442.7453125 -79.953125 429.5453125 -79.953125 415.9453125 C-72.033125 415.9453125 -64.113125 415.9453125 -55.953125 415.9453125 C-55.96802676 390.23113688 -56.0094163 364.51715494 -56.08521557 338.80308247 C-56.1197611 326.86162111 -56.14520734 314.92027394 -56.14868164 302.97875977 C-56.15173611 292.5616663 -56.1724246 282.14477674 -56.21364957 271.72776192 C-56.23484734 266.22003474 -56.24764882 260.71259646 -56.23927879 255.20482826 C-56.23165415 250.00327718 -56.24789766 244.80230744 -56.28118515 239.6008625 C-56.28931831 237.70849571 -56.28928935 235.81606996 -56.27972221 233.92370987 C-56.22120151 221.05754639 -58.05670377 209.59812774 -61.3934685 197.18051088 C-62.72944006 191.84480679 -63.38345398 186.41017987 -63.953125 180.9453125 C-64.06398438 179.89214844 -64.17484375 178.83898437 -64.2890625 177.75390625 C-67.04822065 146.17273122 -63.81039646 113.82606947 -52.953125 83.9453125 C-52.68161621 83.1939502 -52.41010742 82.44258789 -52.13037109 81.66845703 C-42.79794122 56.26837595 -29.42126633 32.37157994 -12.1875 11.49121094 C-10.98064355 9.979776 -9.85596054 8.4038737 -8.734375 6.828125 C-8.0640625 5.89742188 -7.39375 4.96671875 -6.703125 4.0078125 C-6.14109375 3.19441406 -5.5790625 2.38101562 -5 1.54296875 C-2.953125 -0.0546875 -2.953125 -0.0546875 0 0 Z M-5.328125 50.5703125 C-7.44019006 53.65717682 -7.56507645 55.2736038 -6.953125 58.9453125 C-5.453125 61.4453125 -5.453125 61.4453125 -2.953125 62.9453125 C0.7185837 63.55726395 2.33501068 63.43237756 5.421875 61.3203125 C7.53394006 58.23344818 7.65882645 56.6170212 7.046875 52.9453125 C5.546875 50.4453125 5.546875 50.4453125 3.046875 48.9453125 C-0.6248337 48.33336105 -2.24126068 48.45824744 -5.328125 50.5703125 Z M-21.328125 82.5703125 C-23.44019006 85.65717682 -23.56507645 87.2736038 -22.953125 90.9453125 C-21.453125 93.4453125 -21.453125 93.4453125 -18.953125 94.9453125 C-15.2814163 95.55726395 -13.66498932 95.43237756 -10.578125 93.3203125 C-8.46605994 90.23344818 -8.34117355 88.6170212 -8.953125 84.9453125 C-10.453125 82.4453125 -10.453125 82.4453125 -12.953125 80.9453125 C-16.6248337 80.33336105 -18.24126068 80.45824744 -21.328125 82.5703125 Z " fill="#000000" transform="translate(103.953125,0.054687499999999944)"/>
<path d="M0 0 C4.43568625 0.58912755 8.14875599 1.718009 12.265625 3.45703125 C12.87336761 3.7109967 13.48111023 3.96496216 14.10726929 4.22662354 C15.44329653 4.78524366 16.7782032 5.34654948 18.11212158 5.91018677 C21.93528434 7.52379132 25.76878628 9.1125212 29.6015625 10.703125 C30.4345285 11.04920303 31.26749451 11.39528107 32.1257019 11.75184631 C42.25408815 15.9502723 52.44024678 20.00324834 62.625 24.0625 C83.30805211 32.31374563 103.97105249 40.61374036 124.625 48.9375 C125.37495995 49.23973103 126.12491989 49.54196205 126.8976059 49.85335159 C133.81983963 52.64299909 140.74200114 55.43282578 147.66403198 58.22297668 C158.33204327 62.52288413 169.00153608 66.81910049 179.67184067 71.11331367 C184.63374053 73.11027223 189.5954856 75.10761538 194.55724525 77.10492229 C198.51810293 78.69928073 202.47906057 80.29338985 206.44024658 81.88693237 C210.14135405 83.3758585 213.84218249 84.86547612 217.54281235 86.35558891 C218.89121063 86.89839727 220.23970913 87.44095673 221.58832169 87.9832325 C229.74986681 91.26513998 237.88874369 94.59560394 246 98 C241.60945962 109.93167127 236.92700847 121.72860254 232.125 133.5 C231.42948889 135.20955463 230.73417537 136.91918966 230.0390625 138.62890625 C228.36164116 142.75353043 226.68158577 146.87707199 225 151 C219.87768421 150.37319807 215.55707893 148.80861772 210.82324219 146.87304688 C209.62705765 146.39243553 209.62705765 146.39243553 208.40670776 145.90211487 C205.78438052 144.84679728 203.16563906 143.7828753 200.546875 142.71875 C198.72198628 141.98219893 196.89688956 141.246163 195.07159424 140.51062012 C190.27635339 138.57654179 185.48415758 136.63502524 180.69250488 134.69207764 C176.7723701 133.10393923 172.85015278 131.52098425 168.92780685 129.93831635 C160.83609187 126.67324117 152.74571806 123.40482979 144.65917969 120.12695312 C143.90903595 119.82354507 143.15889221 119.52013702 142.38601685 119.20753479 C137.23128407 117.11564204 137.23128407 117.11564204 135 116 C134.45336914 113.86132813 134.45336914 113.86132813 134.03515625 111.03125 C133.87668213 109.99266846 133.71820801 108.95408691 133.55493164 107.8840332 C133.31117798 106.20893677 133.31117798 106.20893677 133.0625 104.5 C132.70878248 102.2121701 132.35461405 99.92440986 132 97.63671875 C131.52487534 94.50866589 131.0545501 91.38043292 130.60546875 88.24853516 C130.27355726 85.93381726 129.92002214 83.62337161 129.5625 81.3125 C129.37816406 80.02988281 129.19382812 78.74726563 129.00390625 77.42578125 C127.34697587 71.77158692 125.18248901 69.21014254 120.12963867 66.40844727 C117.18410128 65.00194309 114.22179623 63.6765889 111.20922852 62.42041016 C109.32348156 61.62960522 107.45630725 60.80344621 105.58789062 59.97265625 C97.75828449 56.64037588 90.53108509 53.83941989 82.25 57.07421875 C81.5075 57.60660156 80.765 58.13898438 80 58.6875 C79.10152344 59.31914062 78.20304687 59.95078125 77.27734375 60.6015625 C76.77444824 60.9718457 76.27155273 61.34212891 75.75341797 61.72363281 C73.67480732 63.23671782 71.5592337 64.6907742 69.44140625 66.1484375 C67.81389396 67.28472691 66.1875957 68.42275712 64.5625 69.5625 C63.78068359 70.10414795 62.99886719 70.6457959 62.19335938 71.20385742 C57.73351204 74.39740595 54.70246713 77.20762495 52 82 C47.81055767 81.31737856 44.12802827 79.97871257 40.19018555 78.40795898 C39.19422615 78.01272034 39.19422615 78.01272034 38.17814636 77.60949707 C35.99604288 76.74239026 33.81639231 75.86928868 31.63671875 74.99609375 C30.11943612 74.39180458 28.60200329 73.78789244 27.08442688 73.18434143 C23.09959698 71.59837595 19.11682381 70.00730811 15.13446045 68.41516113 C11.06678398 66.78995743 6.99717884 65.16959853 2.92773438 63.54882812 C-5.05007028 60.37061799 -13.02570818 57.18701372 -21 54 C-20.40517744 50.63256033 -19.56856058 47.63188039 -18.26586914 44.47265625 C-17.91202652 43.60825928 -17.5581839 42.7438623 -17.19361877 41.85327148 C-16.81132614 40.93231689 -16.42903351 40.0113623 -16.03515625 39.0625 C-15.64178574 38.10480713 -15.24841522 37.14711426 -14.84312439 36.16040039 C-13.58712245 33.10518232 -12.32494088 30.05256232 -11.0625 27 C-10.21638004 24.94548412 -9.37067229 22.89079842 -8.52539062 20.8359375 C-6.97402495 17.06533145 -5.41992367 13.29587491 -3.86352539 9.52734375 C-2.55645185 6.35903123 -1.26169265 3.18673666 0 0 Z " fill="#000000" transform="translate(158,74)"/>
<path d="M0 0 C5.91726428 1.69737643 11.641966 3.53920197 17.3203125 5.91796875 C17.94984833 6.18007645 18.57938416 6.44218414 19.22799683 6.7122345 C21.19563975 7.53269094 23.16033982 8.35993049 25.125 9.1875 C26.47637173 9.75240971 27.82793304 10.31686612 29.1796875 10.88085938 C32.45532399 12.2486949 35.72836349 13.62261997 39 15 C38.39862563 19.53406315 37.20864941 23.38882513 35.48828125 27.62109375 C35.11221992 28.55381859 35.11221992 28.55381859 34.7285614 29.50538635 C33.92889673 31.48511888 33.12094112 33.46133751 32.3125 35.4375 C31.78914699 36.72828606 31.26635636 38.01930029 30.74414062 39.31054688 C30.48535126 39.949086 30.22656189 40.58762512 29.95993042 41.24551392 C29.43635606 42.53956478 28.91448948 43.8343079 28.39431763 45.12973022 C27.05848858 48.44517197 25.6841812 51.73420227 24.23193359 55.00048828 C23.94875778 55.65638443 23.66558197 56.31228058 23.37382507 56.98805237 C22.59341147 58.79346201 21.79380967 60.59054285 20.99291992 62.38696289 C19.00605507 69.61676691 21.3095567 76.9181341 23.26904297 83.98535156 C23.49845581 84.83385178 23.72786865 85.68235199 23.9642334 86.55656433 C24.71737164 89.33630539 25.4798046 92.11340668 26.2421875 94.890625 C26.77231178 96.84184297 27.30177032 98.79324194 27.83059692 100.74481201 C29.22109904 105.87052976 30.61916143 110.99415228 32.01928711 116.11724854 C34.25450861 124.30035939 36.47882472 132.4864371 38.70193863 140.67284393 C39.47423414 143.51212102 40.2501338 146.35039342 41.02658081 149.1885376 C41.50865627 150.95799047 41.99052535 152.72749958 42.47216797 154.49707031 C42.8147228 155.74715567 42.8147228 155.74715567 43.16419792 157.02249527 C44.74811074 162.86813697 46.05900978 168.71859291 47.14675903 174.67889404 C47.78716825 177.14583528 47.78716825 177.14583528 49.97979736 178.25939941 C50.64646423 178.50379761 51.3131311 178.7481958 52 179 C53.18072316 179.81827016 54.33929092 180.66921529 55.4765625 181.546875 C56.13922119 182.05516846 56.80187988 182.56346191 57.48461914 183.0871582 C58.94003733 184.21785893 60.39493365 185.34923165 61.84936523 186.48120117 C65.89258583 189.62393481 69.95813275 192.70836001 74.12109375 195.69140625 C75.36028564 196.59971191 75.36028564 196.59971191 76.62451172 197.52636719 C78.22224672 198.69690888 79.8343095 199.84819518 81.46142578 200.97753906 C86.69282677 204.86943187 86.69282677 204.86943187 87.54492188 208.00561523 C87.78981858 217.6302824 82.74002169 226.6320015 77 234 C76.54496094 234.60457031 76.08992188 235.20914063 75.62109375 235.83203125 C66.51376614 246.36609426 50.43734203 251.25444998 37.09375 252.30859375 C23.06119343 252.92418954 11.31797146 249.32499563 0.7421875 240.01171875 C-2.85504072 236.58854996 -5.65852473 233.89138638 -7 229 C-6.16064453 226.22363281 -6.16064453 226.22363281 -4.6328125 223.203125 C-3.80317993 221.53032471 -3.80317993 221.53032471 -2.95678711 219.82373047 C-2.65723114 219.24024841 -2.35767517 218.65676636 -2.04904175 218.05560303 C-1.11827257 216.23685441 -0.21534713 214.4065377 0.68139648 212.57080078 C3.58282953 206.6573759 6.55904444 200.80926396 9.91870117 195.13916016 C13.21863546 188.6069103 14.59877737 184.86032125 12.63842773 177.64819336 C12.44977614 176.93027839 12.26112455 176.21236341 12.06675625 175.47269344 C11.40214418 172.97455967 10.70153351 170.48800471 10 168 C9.46770403 166.05187866 8.93677599 164.10338319 8.40701294 162.15457153 C6.87711741 156.56142588 5.31382421 150.97804568 3.74431038 145.39590645 C1.97581151 139.0915486 0.23087768 132.78064185 -1.51757812 126.47070312 C-3.73058785 118.48508898 -5.95097249 110.50176714 -8.20141602 102.52661133 C-10.03281138 96.03616794 -11.8359397 89.53845282 -13.62274361 83.03556633 C-14.30501503 80.57104003 -14.99678692 78.10912264 -15.69837761 75.65002632 C-16.67660269 72.21647467 -17.62105094 68.77523507 -18.55834961 65.33032227 C-18.85272415 64.3269986 -19.14709869 63.32367493 -19.45039368 62.28994751 C-21.30001286 55.2994084 -20.71792299 50.66195722 -18 44 C-17.65544266 43.05192474 -17.31088531 42.10384949 -16.95588684 41.12704468 C-16.64278061 40.36759552 -16.32967438 39.60814636 -16.00708008 38.82568359 C-15.46685966 37.50544693 -15.46685966 37.50544693 -14.91572571 36.15853882 C-14.53748154 35.24770538 -14.15923737 34.33687195 -13.76953125 33.3984375 C-13.37424728 32.435961 -12.97896332 31.4734845 -12.57170105 30.48184204 C-11.32305713 27.44438471 -10.0679011 24.40966987 -8.8125 21.375 C-7.95855022 19.30095995 -7.10503051 17.22674278 -6.25195312 15.15234375 C-4.17293281 10.09950552 -2.08857656 5.04889512 0 0 Z " fill="#000000" transform="translate(417,178)"/>
<path d="M0 0 C3.33353501 1.09513244 6.56970184 2.34900453 9.8125 3.6875 C10.67037109 4.01427734 11.52824219 4.34105469 12.41210938 4.67773438 C13.23130859 5.01482422 14.05050781 5.35191406 14.89453125 5.69921875 C15.63550049 5.99658936 16.37646973 6.29395996 17.13989258 6.6003418 C21.35588311 9.77271005 21.41933294 15.98175177 22.14138794 20.90379333 C22.26230804 21.76956497 22.38322815 22.63533661 22.5078125 23.52734375 C22.70333206 24.88805748 22.70333206 24.88805748 22.90280151 26.27626038 C23.17604919 28.18793579 23.4465139 30.10001082 23.71435547 32.01245117 C24.12331498 34.92549746 24.54343392 37.83677863 24.96484375 40.74804688 C25.22983726 42.61188395 25.49418177 44.47581343 25.7578125 46.33984375 C25.94526535 47.63546486 25.94526535 47.63546486 26.13650513 48.95726013 C26.30700882 50.1887252 26.30700882 50.1887252 26.48095703 51.44506836 C26.58151398 52.15755234 26.68207092 52.87003632 26.78567505 53.60411072 C27.06480397 56.72442861 27 59.8672222 27 63 C5.88 63 -15.24 63 -37 63 C-33.29857581 18.58290972 -33.29857581 18.58290972 -26.2890625 11.2265625 C-23.09772151 8.61651613 -19.7093804 6.66150333 -15.95361328 4.97753906 C-13.85810488 3.92899924 -12.24495893 2.65891008 -10.43359375 1.1796875 C-6.70503384 -1.54025859 -4.49380272 -1.27507474 0 0 Z " fill="#000000" transform="translate(253,145)"/>
<path d="M0 0 C5.61 0 11.22 0 17 0 C17 10.89 17 21.78 17 33 C6.86102587 26.24068391 6.86102587 26.24068391 5 20 C4.77521973 19.27087402 4.55043945 18.54174805 4.31884766 17.79052734 C3.60826653 15.43257821 2.95389778 13.06512863 2.3125 10.6875 C2.08755859 9.87732422 1.86261719 9.06714844 1.63085938 8.23242188 C0 2.2790416 0 2.2790416 0 0 Z " fill="#000000" transform="translate(471,320)"/>
</svg>
