<?xml version="1.0" encoding="UTF-8"?>
<svg version="1.1" xmlns="http://www.w3.org/2000/svg" width="512" height="512">
<path d="M0 0 C4.58537499 2.17201973 6.91198568 4.41641876 9 9 C9.47154151 12.586415 9.48867936 16.15579647 9.51171875 19.76953125 C9.52966995 20.80567062 9.54762115 21.84181 9.56611633 22.90934753 C9.62018686 26.21035729 9.65410523 29.51122269 9.6875 32.8125 C9.72067588 35.05405653 9.75516578 37.29559402 9.79101562 39.53710938 C9.87591141 45.02461014 9.94427514 50.51212966 10 56 C11.1031958 55.28497314 12.2063916 54.56994629 13.34301758 53.83325195 C21.43920279 48.58838994 29.54214308 43.35580882 37.6875 38.1875 C39.56641786 36.99350786 41.44532377 35.79949689 43.32421875 34.60546875 C44.26313965 34.00911621 45.20206055 33.41276367 46.16943359 32.79833984 C50.78134229 29.86826226 55.39052355 26.93390172 60 24 C60.89477051 23.43071777 61.78954102 22.86143555 62.71142578 22.27490234 C67.50814137 19.22307271 72.30367142 16.16939898 77.09765625 13.11328125 C78.09603516 12.47712891 79.09441406 11.84097656 80.12304688 11.18554688 C82.03484562 9.96733093 83.94632159 8.74860824 85.85742188 7.52929688 C86.72044922 6.97951172 87.58347656 6.42972656 88.47265625 5.86328125 C89.22812744 5.38157471 89.98359863 4.89986816 90.76196289 4.40356445 C91.50051514 3.94038818 92.23906738 3.47721191 93 3 C93.85851562 2.4548877 94.71703125 1.90977539 95.6015625 1.34814453 C100.07117132 -1.16419056 105.03224205 -0.60582414 110 0 C114.58537499 2.17201973 116.91198568 4.41641876 119 9 C119.47154151 12.586415 119.48867936 16.15579647 119.51171875 19.76953125 C119.52966995 20.80567062 119.54762115 21.84181 119.56611633 22.90934753 C119.62018686 26.21035729 119.65410523 29.51122269 119.6875 32.8125 C119.72067588 35.05405653 119.75516578 37.29559402 119.79101562 39.53710938 C119.87591141 45.02461014 119.94427514 50.51212966 120 56 C121.1031958 55.28497314 122.2063916 54.56994629 123.34301758 53.83325195 C131.43920279 48.58838994 139.54214308 43.35580882 147.6875 38.1875 C149.56641786 36.99350786 151.44532377 35.79949689 153.32421875 34.60546875 C154.26313965 34.00911621 155.20206055 33.41276367 156.16943359 32.79833984 C160.78134229 29.86826226 165.39052355 26.93390172 170 24 C170.89477051 23.43071777 171.78954102 22.86143555 172.71142578 22.27490234 C177.50814137 19.22307271 182.30367142 16.16939898 187.09765625 13.11328125 C188.09603516 12.47712891 189.09441406 11.84097656 190.12304688 11.18554688 C192.03484562 9.96733093 193.94632159 8.74860824 195.85742188 7.52929688 C197.15196289 6.70461914 197.15196289 6.70461914 198.47265625 5.86328125 C199.22812744 5.38157471 199.98359863 4.89986816 200.76196289 4.40356445 C201.50051514 3.94038818 202.23906738 3.47721191 203 3 C203.85851562 2.4548877 204.71703125 1.90977539 205.6015625 1.34814453 C210.07117132 -1.16419056 215.03224205 -0.60582414 220 0 C224.59058798 2.17448904 226.8400329 4.4517262 229 9 C229.28610646 11.91745569 229.40962186 14.61831355 229.38768005 17.53330994 C229.39575836 18.81968702 229.39575836 18.81968702 229.40399987 20.13205153 C229.41830376 23.00476574 229.41116972 25.87702074 229.40405273 28.74975586 C229.40975502 30.80970124 229.41671873 32.86964346 229.42485046 34.92958069 C229.44281245 40.52459582 229.44160776 46.11945438 229.43590808 51.7144897 C229.43282066 56.38411834 229.4389037 61.05371671 229.44494683 65.72334105 C229.4590004 76.73868194 229.45742378 87.7539453 229.44604492 98.76928711 C229.43456226 110.13635409 229.44864008 121.50318518 229.4754414 132.87022108 C229.49758647 142.62746435 229.50423847 152.3846335 229.49836498 162.14190012 C229.49499144 167.97042492 229.49743699 173.79879848 229.51461601 179.62730217 C229.530064 185.10782862 229.52615326 190.58800516 229.50731087 196.06851768 C229.50361908 198.08008507 229.50675057 200.09167825 229.51719666 202.10322189 C229.53036778 204.84912183 229.51889353 207.59385677 229.50120544 210.33970642 C229.51081045 211.13591792 229.52041546 211.93212941 229.53031152 212.75246853 C229.4616618 217.93130407 228.49593548 220.94460903 225 225 C221.34243422 227.62218124 218.84896974 228.37438428 214.37158489 228.36914349 C212.67939706 228.3781032 212.67939706 228.3781032 210.95302361 228.38724393 C209.10137832 228.37413614 209.10137832 228.37413614 207.21232605 228.36076355 C205.2396874 228.36460846 205.2396874 228.36460846 203.22719747 228.36853105 C199.5784898 228.37524038 195.93004621 228.36323735 192.28137219 228.34819686 C188.34618141 228.33524716 184.41100565 228.33962521 180.47579956 228.34190369 C173.65831661 228.3434771 166.84091977 228.33406083 160.02345848 228.31719017 C150.1665557 228.2928139 140.30969457 228.28499631 130.45276491 228.2812262 C114.46075521 228.27465956 98.46879141 228.25469262 82.47680664 228.22631836 C66.94165273 228.19878329 51.40651128 228.17754701 35.87133789 228.16479492 C34.91382593 228.16400675 33.95631396 228.16321858 32.96978649 228.16240653 C28.16625287 228.15849143 23.36271916 228.1547003 18.55918539 228.15097082 C-21.29390854 228.11986829 -61.14695124 228.0670267 -101 228 C-101.23364705 205.8255231 -101.40996529 183.65124926 -101.51812172 161.47579098 C-101.56967679 151.17916138 -101.63995684 140.88329676 -101.75439453 130.5871582 C-101.85409667 121.61251855 -101.91858871 112.63843288 -101.94088495 103.6632548 C-101.95391811 98.91100994 -101.98452079 94.16034982 -102.05730057 89.4086132 C-102.12527999 84.93395347 -102.14609797 80.46152768 -102.13107681 75.9864006 C-102.13382371 74.34602136 -102.1536633 72.705566 -102.19205475 71.06563377 C-102.46758589 58.68681772 -102.46758589 58.68681772 -98.85068893 54.52961922 C-96.30285727 52.71736811 -93.81778421 51.343017 -91 50 C-89.5350951 49.07968742 -88.07966687 48.14384378 -86.640625 47.18359375 C-85.17857033 46.26585595 -83.71497491 45.35056902 -82.25 44.4375 C-80.58439206 43.3923148 -78.91903775 42.34672533 -77.25390625 41.30078125 C-76.3942627 40.76146973 -75.53461914 40.2221582 -74.64892578 39.66650391 C-70.15079008 36.83661688 -65.66940799 33.98049269 -61.1875 31.125 C-60.27371582 30.54322998 -59.35993164 29.96145996 -58.41845703 29.36206055 C-52.75616673 25.75684771 -47.09533865 22.14934493 -41.4362793 18.5390625 C-39.57679144 17.35570801 -37.71500473 16.1759574 -35.85083008 15 C-31.67842203 12.36598184 -27.54152205 9.70737056 -23.484375 6.8984375 C-15.93867406 1.74917253 -9.47504394 -2.26867249 0 0 Z M-38 124 C-40.7579093 128.42376056 -40.64722237 132.942077 -40 138 C-37.83701163 142.40608743 -35.60319521 145.1987497 -31 147 C-25.95674616 147.68426057 -22.16923116 147.5739862 -17.5625 145.3125 C-14.20343988 142.28115306 -12.30644369 140.25860352 -11.68359375 135.66796875 C-11.41786348 129.95048191 -12.03152848 126.39749547 -16 122 C-19.79916666 118.64779412 -23.60068965 118.43211014 -28.4921875 118.578125 C-32.45823817 119.24531109 -35.28396195 121.06791347 -38 124 Z M22 124 C19.2420907 128.42376056 19.35277763 132.942077 20 138 C22.16298837 142.40608743 24.39680479 145.1987497 29 147 C34.04325384 147.68426057 37.83076884 147.5739862 42.4375 145.3125 C45.79656012 142.28115306 47.69355631 140.25860352 48.31640625 135.66796875 C48.58213652 129.95048191 47.96847152 126.39749547 44 122 C40.20083334 118.64779412 36.39931035 118.43211014 31.5078125 118.578125 C27.54176183 119.24531109 24.71603805 121.06791347 22 124 Z M82 124 C79.2420907 128.42376056 79.35277763 132.942077 80 138 C82.16298837 142.40608743 84.39680479 145.1987497 89 147 C94.04325384 147.68426057 97.83076884 147.5739862 102.4375 145.3125 C105.79656012 142.28115306 107.69355631 140.25860352 108.31640625 135.66796875 C108.58213652 129.95048191 107.96847152 126.39749547 104 122 C100.20083334 118.64779412 96.39931035 118.43211014 91.5078125 118.578125 C87.54176183 119.24531109 84.71603805 121.06791347 82 124 Z M142 124 C139.2420907 128.42376056 139.35277763 132.942077 140 138 C142.16298837 142.40608743 144.39680479 145.1987497 149 147 C154.04325384 147.68426057 157.83076884 147.5739862 162.4375 145.3125 C165.79656012 142.28115306 167.69355631 140.25860352 168.31640625 135.66796875 C168.58213652 129.95048191 167.96847152 126.39749547 164 122 C160.20083334 118.64779412 156.39931035 118.43211014 151.5078125 118.578125 C147.54176183 119.24531109 144.71603805 121.06791347 142 124 Z " fill="#000000" transform="translate(282,284)"/>
<path d="M0 0 C1.47952792 -0.00571332 2.95905143 -0.01268127 4.43856812 -0.02079773 C8.43045425 -0.03863932 12.42211949 -0.03757772 16.41403341 -0.03185534 C19.75867176 -0.02875005 23.10326849 -0.03487086 26.44790089 -0.04089409 C34.34486024 -0.05490849 42.24171133 -0.05340413 50.13867188 -0.04199219 C58.25829065 -0.03051704 66.37757888 -0.04458344 74.49715412 -0.07138866 C81.49368724 -0.093613 88.49011713 -0.10016784 95.48668301 -0.09431225 C99.65425674 -0.09095715 103.82161873 -0.09326051 107.98916245 -0.11056328 C111.91116744 -0.12613803 115.83268648 -0.1219617 119.754673 -0.10325813 C121.18481612 -0.09960098 122.61499609 -0.10259571 124.04510498 -0.11314392 C140.55778876 -0.22553509 153.7064773 4.64664184 165.74658203 15.95874023 C174.87142719 25.4316309 181.24093181 37.63039503 181.21557617 50.91674805 C181.2157222 51.56106781 181.21586823 52.20538757 181.21601868 52.86923218 C181.21532429 54.99024876 181.20755415 57.11117657 181.19970703 59.23217773 C181.19784117 60.70619661 181.19641806 62.18021612 181.19541931 63.65423584 C181.19160739 67.52744265 181.18178844 71.40061176 181.17071533 75.27380371 C181.16047271 79.2286732 181.15591558 83.1835488 181.15087891 87.13842773 C181.14016496 94.89365322 181.12310447 102.64884769 181.10205078 110.40405273 C181.99718384 110.82158813 181.99718384 110.82158813 182.91040039 111.24755859 C186.2210082 112.99450626 188.87070973 115.50753126 191.66455078 117.96655273 C192.92411081 119.06128912 194.18453612 120.15503072 195.44580078 121.24780273 C196.37779297 122.05604492 196.37779297 122.05604492 197.32861328 122.88061523 C199.73979238 124.95189243 202.19672987 126.96326282 204.66455078 128.96655273 C209.24527277 132.68628733 213.75493831 136.48158002 218.2487793 140.30517578 C222.66310665 144.05356278 227.1463771 147.71093634 231.66455078 151.33374023 C235.28630754 154.40991184 238.46106885 157.44257984 241.10205078 161.40405273 C241.10205078 171.63405273 241.10205078 181.86405273 241.10205078 192.40405273 C191.60205078 192.40405273 142.10205078 192.40405273 91.10205078 192.40405273 C91.10205078 161.40405273 91.10205078 161.40405273 95.10205078 155.40405273 C97.44189453 153.23608398 97.44189453 153.23608398 100.03955078 151.21655273 C104.29233048 147.84717335 108.47550736 144.42524725 112.60205078 140.90405273 C116.57035542 137.53038167 120.56224717 134.19226498 124.60205078 130.90405273 C129.8117078 126.66310207 134.94031551 122.33183666 140.05908203 117.98217773 C141.06326172 117.13139648 142.06744141 116.28061523 143.10205078 115.40405273 C143.64651855 114.9290332 144.19098633 114.45401367 144.75195312 113.96459961 C148.88464132 110.40405273 148.88464132 110.40405273 151.10205078 110.40405273 C151.00936515 102.7357887 150.9020072 95.06782846 150.78466797 87.39990234 C150.74649323 84.79382939 150.71162072 82.18770581 150.68017578 79.58154297 C150.63427516 75.8255815 150.5763216 72.06996509 150.51611328 68.31420898 C150.49878647 66.57929955 150.49878647 66.57929955 150.48110962 64.80934143 C150.30713465 55.17392311 149.62774252 45.98975532 143.10205078 38.40405273 C134.56270635 31.05797914 124.00698481 31.10815037 113.28955078 31.14526367 C112.034729 31.14175903 110.77990723 31.13825439 109.48706055 31.13464355 C106.06965667 31.12738515 102.65249723 31.1290361 99.23510742 31.13540173 C95.64387708 31.14049634 92.05265657 31.13576071 88.46142578 31.13262939 C82.43276107 31.12899978 76.40414551 31.13376239 70.37548828 31.14331055 C63.42436789 31.15419317 56.47336486 31.15066688 49.52224731 31.13965774 C43.53385419 31.13055614 37.54549621 31.12931359 31.55709839 31.13453507 C27.98938068 31.13763903 24.42171799 31.13810774 20.85400391 31.1314621 C16.87414047 31.12456539 12.89440651 31.13414818 8.91455078 31.14526367 C7.1609021 31.13919098 7.1609021 31.13919098 5.37182617 31.13299561 C-4.23951027 31.18257874 -13.33510921 31.89802879 -20.89794922 38.40405273 C-29.01137512 47.83539553 -28.27419977 60.22998385 -28.52294922 71.96655273 C-28.56120768 73.46722449 -28.60026373 74.96787613 -28.64013672 76.46850586 C-28.73527118 80.11350217 -28.8196083 83.75865227 -28.89794922 87.40405273 C-28.14706024 87.39517029 -27.39617126 87.38628784 -26.62252808 87.37713623 C-19.53127003 87.29684545 -12.44017057 87.23601513 -5.34858513 87.19680405 C-1.70305802 87.17596702 1.94209215 87.1477219 5.58740234 87.10229492 C9.10820065 87.0586963 12.62863739 87.03488642 16.14968491 87.02454376 C18.14053025 87.01360268 20.131231 86.98239874 22.12185669 86.9508667 C33.58992221 86.94802861 33.58992221 86.94802861 38.10205078 91.40405273 C40.99596737 95.37882627 41.47437132 98.16067657 41.46281433 103.0415802 C41.46537761 103.69513715 41.46794088 104.3486941 41.47058183 105.0220558 C41.47550905 107.20408536 41.45904532 109.3854174 41.44262695 111.56738281 C41.44178045 113.1346027 41.44225628 114.70182377 41.44395447 116.26904297 C41.44481493 120.51871578 41.42718096 124.76813437 41.4062326 129.01774812 C41.3874743 133.46068675 41.38571602 137.90363127 41.38215637 142.34660339 C41.37283342 150.7577853 41.34821624 159.16885017 41.3181079 167.57998055 C41.2845717 177.15668134 41.26807984 186.73338773 41.2530216 196.31013262 C41.22166691 216.0081713 41.16890153 235.70610464 41.10205078 255.40405273 C40.20571426 255.67327042 39.30937775 255.9424881 38.38587952 256.21986389 C37.21206223 256.57592209 36.03824493 256.93198029 34.82885742 257.29882812 C33.6643959 257.65054581 32.49993439 258.00226349 31.30018616 258.36463928 C27.67558721 259.54265599 24.80414416 260.8897519 21.53955078 262.84155273 C20.97623047 263.17590332 20.41291016 263.51025391 19.83251953 263.85473633 C12.91867085 268.01523341 6.18981882 272.48394905 -0.55419922 276.91186523 C-5.96871901 280.4624027 -11.42879063 283.93846641 -16.89794922 287.40405273 C-25.25041759 292.69809076 -33.55563115 298.06000385 -41.81787109 303.49389648 C-42.99639648 304.26540039 -42.99639648 304.26540039 -44.19873047 305.05249023 C-44.89135986 305.5080127 -45.58398926 305.96353516 -46.29760742 306.43286133 C-47.89794922 307.40405273 -47.89794922 307.40405273 -48.89794922 307.40405273 C-48.90603607 306.75942078 -48.91412292 306.11478882 -48.92245483 305.45062256 C-49.00968156 298.63495813 -49.10920845 291.81954615 -49.21533203 285.00415039 C-49.25320697 282.47326964 -49.28812524 279.94234259 -49.31982422 277.41137695 C-49.74198878 244.0999542 -51.35791164 212.93103217 -73.89794922 186.40405273 C-74.58244141 185.55842773 -75.26693359 184.71280273 -75.97216797 183.84155273 C-84.20004486 174.10802 -94.15968196 166.57018152 -105.33544922 160.52905273 C-105.96580078 160.18414795 -106.59615234 159.83924316 -107.24560547 159.48388672 C-114.13229998 155.93850801 -121.5389532 153.74672977 -128.89794922 151.40405273 C-128.99946745 143.68118532 -129.0694649 135.95849034 -129.11767578 128.23510742 C-129.13777637 125.6084144 -129.16506126 122.98176605 -129.19970703 120.35522461 C-129.24829086 116.57711761 -129.27093431 112.79960289 -129.28857422 109.02124023 C-129.30921936 107.84915009 -129.3298645 106.67705994 -129.35113525 105.4694519 C-129.35281911 99.3348741 -129.3499353 95.07170268 -124.89794922 90.40405273 C-121.05909008 87.63461806 -118.43552632 87.03425412 -113.73071289 87.06347656 C-111.89938057 87.06381645 -111.89938057 87.06381645 -110.03105164 87.06416321 C-108.06831047 87.08738899 -108.06831047 87.08738899 -106.06591797 87.11108398 C-104.70543385 87.1166839 -103.34494365 87.12095213 -101.98445129 87.12394714 C-98.41524355 87.13536497 -94.84640593 87.16480509 -91.27734375 87.19805908 C-87.63074754 87.22882648 -83.98409113 87.24246667 -80.33740234 87.25756836 C-73.19076717 87.28967825 -66.04438244 87.34083702 -58.89794922 87.40405273 C-58.92937012 85.54441895 -58.92937012 85.54441895 -58.96142578 83.6472168 C-59.03447418 78.99548138 -59.07998217 74.3437954 -59.11767578 69.69165039 C-59.13764482 67.68798259 -59.16482985 65.68437195 -59.19970703 63.6809082 C-59.56302504 42.25583124 -59.56302504 42.25583124 -54.89794922 32.40405273 C-54.36814453 31.25549805 -53.83833984 30.10694336 -53.29248047 28.92358398 C-45.09813479 14.90214804 -33.55486286 5.5988253 -17.90909958 1.03803825 C-11.99950092 -0.20620382 -6.01331438 -0.02111666 0 0 Z " fill="#000000" transform="translate(229.89794921875,-0.404052734375)"/>
<path d="M0 0 C1.71388916 0.01353516 1.71388916 0.01353516 3.46240234 0.02734375 C12.00549211 0.20256166 19.20612575 1.02998441 27.125 4.4375 C27.7658252 4.71126465 28.40665039 4.9850293 29.06689453 5.26708984 C48.55992236 13.78346123 61.87853285 27.22896927 70.6875 46.4765625 C74.22948243 55.59464156 75.56855681 64.51176195 75.48576355 74.24468994 C75.48832682 75.36975283 75.4908901 76.49481573 75.49353105 77.65397143 C75.4984366 81.38958155 75.4820292 85.12477926 75.46557617 88.86035156 C75.4647292 91.55175174 75.4650746 94.24312735 75.46690369 96.93452454 C75.46847023 102.71130825 75.45912621 108.48798964 75.44219017 114.26474762 C75.41772016 122.61676288 75.40998676 130.96872909 75.4062262 139.32077631 C75.39967421 152.87419787 75.37974718 166.427565 75.35131836 179.98095703 C75.32374527 193.14013397 75.30252763 206.29929607 75.28979492 219.45849609 C75.28861267 220.67694176 75.28861267 220.67694176 75.28740653 221.92000249 C75.28349117 225.99540624 75.27970011 230.07081009 75.27597082 234.14621401 C75.24491393 267.91002425 75.18963202 301.67373318 75.125 335.4375 C55.325 335.4375 35.525 335.4375 15.125 335.4375 C15.07601562 330.10464844 15.02703125 324.77179688 14.9765625 319.27734375 C14.94116122 315.8912575 14.9051927 312.5051962 14.8671875 309.11914062 C14.80696828 303.74914186 14.74880699 298.37917787 14.703125 293.0090332 C14.66614781 288.6776667 14.61975463 284.34649249 14.56693649 280.01529121 C14.54845844 278.36599679 14.53332637 276.71666125 14.52165604 275.06730461 C14.50468019 272.75031884 14.47561922 270.43376717 14.44384766 268.11694336 C14.43052399 266.8001207 14.41720032 265.48329803 14.4034729 264.12657166 C13.99368998 258.69796965 13.23201842 254.71057119 9.625 250.5625 C5.59422959 247.13634515 2.83574479 247.0823897 -2.33203125 247.171875 C-6.2373787 247.57980684 -8.10509638 248.66759638 -10.875 251.4375 C-14.73083979 259.91525962 -14.35187914 268.59939788 -14.38671875 277.72265625 C-14.40358766 279.3913249 -14.42174085 281.05998101 -14.44111633 282.72862244 C-14.48838254 287.09325238 -14.51834245 291.45783147 -14.54455566 295.82263184 C-14.57447994 300.28745561 -14.62096915 304.75210459 -14.66601562 309.21679688 C-14.75178235 317.95694488 -14.8192452 326.69710923 -14.875 335.4375 C-22.02819672 335.53906178 -29.18120695 335.60903366 -36.33496094 335.65722656 C-38.76764881 335.67732071 -41.20028851 335.70460088 -43.6328125 335.73925781 C-47.13293355 335.7878706 -50.63241502 335.81049139 -54.1328125 335.828125 C-55.21740753 335.84877014 -56.30200256 335.86941528 -57.41946411 335.89068604 C-63.38273808 335.89245131 -67.3046462 335.69952545 -71.875 331.4375 C-75.78301134 326.6760049 -75.29781614 321.77230268 -75.26268005 315.90797424 C-75.26806559 314.83552222 -75.27345113 313.76307019 -75.27899987 312.65811962 C-75.29332799 309.05785231 -75.28616339 305.45795017 -75.27905273 301.85766602 C-75.28475401 299.27868859 -75.29171732 296.6997137 -75.29985046 294.1207428 C-75.31705193 287.83680594 -75.31787506 281.55296902 -75.31263756 275.26901472 C-75.30859425 270.15673394 -75.31004135 265.04448267 -75.31538582 259.93220329 C-75.31613424 259.2042275 -75.31688266 258.4762517 -75.31765376 257.72621603 C-75.31918529 256.24717593 -75.32072364 254.76813584 -75.32226873 253.28909575 C-75.33600064 239.41390518 -75.33055304 225.53877096 -75.31908352 211.66358166 C-75.30916807 198.99244275 -75.32206127 186.32145022 -75.34601771 173.65033389 C-75.37045604 160.62556987 -75.38000389 147.60087388 -75.37336498 134.57608742 C-75.36988097 127.26955441 -75.37204955 119.96313371 -75.38961601 112.65661812 C-75.4059499 105.77748941 -75.40108264 98.89864294 -75.38231087 92.01952171 C-75.37863562 89.50174639 -75.38170219 86.98395029 -75.39219666 84.46619415 C-75.4863701 59.99353252 -75.4863701 59.99353252 -70.875 48.4375 C-70.54987144 47.62003579 -70.22474287 46.80257158 -69.88976192 45.96033573 C-69.06996119 44.0028288 -68.16694775 42.13217964 -67.1875 40.25 C-66.84283691 39.58202393 -66.49817383 38.91404785 -66.14306641 38.22583008 C-56.84432214 20.81528165 -40.94958124 8.45439819 -22.19580078 2.60131836 C-14.73670156 0.53682272 -7.72002428 -0.07340389 0 0 Z M-11.875 61.4375 C-14.6329093 65.86126056 -14.52222237 70.379577 -13.875 75.4375 C-11.71201163 79.84358743 -9.47819521 82.6362497 -4.875 84.4375 C0.16825384 85.12176057 3.95576884 85.0114862 8.5625 82.75 C11.92156012 79.71865306 13.81855631 77.69610352 14.44140625 73.10546875 C14.70713652 67.38798191 14.09347152 63.83499547 10.125 59.4375 C6.32583334 56.08529412 2.52431035 55.86961014 -2.3671875 56.015625 C-6.33323817 56.68281109 -9.15896195 58.50541347 -11.875 61.4375 Z M-11.875 121.4375 C-14.6329093 125.86126056 -14.52222237 130.379577 -13.875 135.4375 C-11.71201163 139.84358743 -9.47819521 142.6362497 -4.875 144.4375 C0.16825384 145.12176057 3.95576884 145.0114862 8.5625 142.75 C11.92156012 139.71865306 13.81855631 137.69610352 14.44140625 133.10546875 C14.70713652 127.38798191 14.09347152 123.83499547 10.125 119.4375 C6.32583334 116.08529412 2.52431035 115.86961014 -2.3671875 116.015625 C-6.33323817 116.68281109 -9.15896195 118.50541347 -11.875 121.4375 Z M-11.875 181.4375 C-14.6329093 185.86126056 -14.52222237 190.379577 -13.875 195.4375 C-11.71201163 199.84358743 -9.47819521 202.6362497 -4.875 204.4375 C0.16825384 205.12176057 3.95576884 205.0114862 8.5625 202.75 C11.92156012 199.71865306 13.81855631 197.69610352 14.44140625 193.10546875 C14.70713652 187.38798191 14.09347152 183.83499547 10.125 179.4375 C6.32583334 176.08529412 2.52431035 175.86961014 -2.3671875 176.015625 C-6.33323817 176.68281109 -9.15896195 178.50541347 -11.875 181.4375 Z " fill="#000000" transform="translate(75.875,176.5625)"/>
<path d="M0 0 C49.5 0 99 0 150 0 C150 13.53 150 27.06 150 41 C137.69703258 51.55538682 137.69703258 51.55538682 132.3984375 53.4375 C126.61792449 55.67909828 121.74313881 58.47269936 116.625 61.9375 C110.33748327 66 110.33748327 66 108 66 C107.5153125 64.9378125 107.030625 63.875625 106.53125 62.78125 C99.94422335 48.72105707 92.88410297 40.67534599 78 35 C64.12092955 31.33411509 52.64211933 33.56886926 40.31640625 40.61816406 C33.11352175 44.9149944 26.08047271 49.48990114 19.05078125 54.0625 C17.5495874 55.03896484 17.5495874 55.03896484 16.01806641 56.03515625 C13.96155412 57.37400198 11.90660215 58.71524675 9.85302734 60.05859375 C8.86383301 60.69925781 7.87463867 61.33992188 6.85546875 62 C5.96883545 62.5775 5.08220215 63.155 4.16870117 63.75 C2 65 2 65 0 65 C0 43.55 0 22.1 0 0 Z " fill="#000000" transform="translate(321,222)"/>
</svg>
