<?xml version="1.0" encoding="UTF-8"?>
<svg version="1.1" xmlns="http://www.w3.org/2000/svg" width="512" height="512">
<path d="M0 0 C1.2707563 -0.00855011 1.2707563 -0.00855011 2.56718445 -0.01727295 C4.36012526 -0.02671702 6.15308338 -0.03325458 7.94604492 -0.03710938 C10.67853383 -0.04680163 13.41026613 -0.07782462 16.14257812 -0.109375 C17.8867143 -0.11590678 19.63085583 -0.12115657 21.375 -0.125 C22.18769852 -0.1373468 23.00039703 -0.1496936 23.83772278 -0.16241455 C30.19632749 -0.13765334 34.27392272 1.30039082 39.09765625 5.64453125 C42.55935486 10.13975858 43.07965115 15.68346055 44.01171875 21.140625 C44.21917725 22.25348877 44.42663574 23.36635254 44.64038086 24.51293945 C45.39726766 28.58286841 46.11558153 32.65904166 46.83154297 36.73632812 C47.19483109 38.7894224 47.57139332 40.8401562 47.94921875 42.890625 C48.22958984 44.53611328 48.22958984 44.53611328 48.515625 46.21484375 C49.84523381 50.77605784 51.83329667 54.08497387 55.71484375 56.87890625 C56.5965625 57.31589844 57.47828125 57.75289062 58.38671875 58.203125 C59.4540625 58.73292969 60.52140625 59.26273438 61.62109375 59.80859375 C71.17043089 64.53304127 71.17043089 64.53304127 81.38671875 64.203125 C85.53928627 62.02136158 89.3474566 59.43788788 93.17626953 56.74511719 C96.65612468 54.3175973 100.18681623 51.96709274 103.71582031 49.61181641 C105.60311204 48.35158009 107.48666836 47.08572949 109.36621094 45.81396484 C110.2327832 45.2308252 111.09935547 44.64768555 111.9921875 44.046875 C113.15463989 43.26086914 113.15463989 43.26086914 114.34057617 42.45898438 C118.36691332 39.98774249 121.74886086 39.89393447 126.38671875 40.203125 C131.8513305 42.09996854 135.42824197 44.66860066 139.46875 48.82421875 C140.00900314 49.36538834 140.54925629 49.90655792 141.10588074 50.46412659 C142.23739224 51.60164211 143.36407813 52.74397651 144.48608398 53.89086914 C146.20129839 55.6427491 147.93213612 57.3779389 149.66601562 59.11132812 C150.76787753 60.22301709 151.86882177 61.33561653 152.96875 62.44921875 C153.48331253 62.96600693 153.99787506 63.4827951 154.5280304 64.01524353 C158.74090208 68.34062659 160.67582054 71.34121568 160.82421875 77.390625 C160.86417969 78.27105469 160.90414063 79.15148437 160.9453125 80.05859375 C159.17760483 90.00967538 150.82971346 98.85221886 145.09375 106.8515625 C138.58371108 115.41309617 138.58371108 115.41309617 136.5 125.6015625 C137.5447956 129.84518162 138.92178686 133.78805395 140.57421875 137.828125 C140.85330078 138.56546875 141.13238281 139.3028125 141.41992188 140.0625 C143.37807621 144.88656233 145.59052481 148.7752062 150.38671875 151.203125 C154.31302758 152.41995778 158.27639366 153.1367684 162.32421875 153.828125 C163.43708252 154.0355835 164.54994629 154.24304199 165.6965332 154.45678711 C169.76646216 155.21367391 173.84263541 155.93198778 177.91992188 156.64794922 C179.97301615 157.01123734 182.02374995 157.38779957 184.07421875 157.765625 C185.17121094 157.95253906 186.26820313 158.13945312 187.3984375 158.33203125 C193.6855363 160.1647411 197.17992781 163.62093336 200.38671875 169.203125 C201.639546 172.96160674 201.5105371 176.45803419 201.484375 180.37109375 C201.48225258 181.56331291 201.48225258 181.56331291 201.48008728 182.77961731 C201.47449253 185.31665825 201.46194103 187.85361075 201.44921875 190.390625 C201.44420307 192.11132685 201.43964028 193.83203008 201.43554688 195.55273438 C201.42452482 199.7695653 201.40726381 203.98633016 201.38671875 208.203125 C200.5052417 208.2124707 199.62376465 208.22181641 198.71557617 208.23144531 C195.3919127 208.27590321 192.0694534 208.33770818 188.74633789 208.41064453 C187.31806889 208.43857741 185.88965325 208.45992715 184.46118164 208.47412109 C174.26869472 208.5813728 164.46910865 209.15301378 155.97265625 215.47265625 C152.90370078 218.71313944 150.98831664 221.91863069 149.01171875 225.890625 C148.63668213 226.62015381 148.26164551 227.34968262 147.87524414 228.10131836 C143.71221715 236.31476373 140.01767206 244.74409207 136.38671875 253.203125 C131.12861675 250.40691322 126.16465254 247.40568879 121.26171875 244.015625 C114.52106514 239.48488188 108.71062191 237.05349502 100.38671875 238.203125 C92.39041747 240.15543832 87.12809549 243.45201711 81.38671875 249.203125 C80.24509192 250.27644644 79.10170322 251.34789547 77.95703125 252.41796875 C69.31596699 260.61340744 61.88757572 268.17033384 61.26171875 280.70703125 C61.77455203 290.94767073 67.48747561 298.66736869 73.2109375 306.79296875 C74.04044922 307.98599609 74.04044922 307.98599609 74.88671875 309.203125 C75.39203125 309.904375 75.89734375 310.605625 76.41796875 311.328125 C76.8975 312.25625 76.8975 312.25625 77.38671875 313.203125 C77.05671875 314.193125 76.72671875 315.183125 76.38671875 316.203125 C73.65360931 317.27889134 71.00492899 318.17658457 68.19921875 319.015625 C48.88190469 324.47265791 48.88190469 324.47265791 35.57421875 338.265625 C32.86965804 343.94607776 32.26829995 348.22850748 32.32421875 354.55859375 C32.32800537 355.26083572 32.33179199 355.9630777 32.33569336 356.68659973 C32.34787694 358.92133815 32.36651934 361.15594553 32.38671875 363.390625 C32.41321226 366.34244413 32.43323627 369.29420118 32.44921875 372.24609375 C32.46082031 373.55602295 32.47242188 374.86595215 32.484375 376.21557617 C32.38671875 379.203125 32.38671875 379.203125 31.38671875 380.203125 C28.42710367 380.34163904 25.49256603 380.41634437 22.53125 380.44140625 C21.63685715 380.449478 20.74246429 380.45754974 19.82096863 380.46586609 C17.92192535 380.47972727 16.02285694 380.49044028 14.1237793 380.49829102 C11.22851656 380.51545135 8.33441112 380.55931214 5.43945312 380.60351562 C3.59506049 380.61364684 1.75065813 380.6221616 -0.09375 380.62890625 C-0.95647018 380.64641434 -1.81919037 380.66392242 -2.70805359 380.68196106 C-9.37553725 380.65809066 -12.89084916 378.71429252 -17.828125 374.16015625 C-20.53205828 369.68121207 -21.22704952 364.99297466 -22.17578125 359.890625 C-22.38775146 358.82279785 -22.59972168 357.7549707 -22.81811523 356.65478516 C-23.75982776 351.87245442 -24.64579874 347.0834948 -25.45703125 342.27734375 C-25.58134521 341.55780518 -25.70565918 340.8382666 -25.83374023 340.09692383 C-26.15247535 338.21568138 -26.44824668 336.33058808 -26.7421875 334.4453125 C-27.9847178 329.82064814 -29.85544928 326.4181878 -33.83984375 323.6640625 C-34.63132813 323.30570312 -35.4228125 322.94734375 -36.23828125 322.578125 C-37.55119141 321.98064453 -37.55119141 321.98064453 -38.890625 321.37109375 C-39.78910156 320.98566406 -40.68757812 320.60023438 -41.61328125 320.203125 C-42.91458984 319.60951172 -42.91458984 319.60951172 -44.2421875 319.00390625 C-49.16823334 316.86051226 -53.15493756 315.46834796 -58.61328125 316.203125 C-64.1338193 318.590163 -68.89235505 322.02662567 -73.80078125 325.453125 C-95.33079338 340.34021708 -95.33079338 340.34021708 -100.86328125 340.453125 C-101.6109375 340.47890625 -102.35859375 340.5046875 -103.12890625 340.53125 C-110.91138735 339.50337514 -116.21657118 333.35687268 -121.61328125 328.203125 C-122.4343335 327.42291992 -122.4343335 327.42291992 -123.27197266 326.62695312 C-125.02197986 324.95521629 -126.7571821 323.26942035 -128.48828125 321.578125 C-129.03556885 321.05234863 -129.58285645 320.52657227 -130.14672852 319.98486328 C-134.411394 315.75504091 -137.94585697 311.47120252 -139.1796875 305.4296875 C-139.17839844 304.57117188 -139.17710937 303.71265625 -139.17578125 302.828125 C-139.19769531 301.97476562 -139.21960938 301.12140625 -139.2421875 300.2421875 C-137.65106501 292.55340926 -132.21637123 286.00613673 -127.67578125 279.765625 C-118.49745623 268.07024772 -118.49745623 268.07024772 -114.61328125 254.203125 C-115.52603279 250.66716849 -116.87718056 247.37354621 -118.30078125 244.015625 C-118.65333984 243.12681641 -119.00589844 242.23800781 -119.36914062 241.32226562 C-121.23335931 236.78611377 -122.75685661 233.39328782 -126.61328125 230.203125 C-129.10616476 229.18381078 -129.10616476 229.18381078 -131.90234375 228.63671875 C-132.96356445 228.39808105 -134.02478516 228.15944336 -135.11816406 227.91357422 C-142.06482388 226.50153314 -149.02545558 225.15773051 -156.00244141 223.90356445 C-157.96618167 223.54854202 -159.92651887 223.17485766 -161.88671875 222.80078125 C-163.03575684 222.58945557 -164.18479492 222.37812988 -165.36865234 222.16040039 C-171.24847124 220.42565473 -175.15556984 217.19759703 -178.61328125 212.203125 C-179.85963043 208.46407745 -179.79495257 204.95903797 -179.81640625 201.0625 C-179.82210632 200.2620929 -179.8278064 199.46168579 -179.8336792 198.63702393 C-179.84312267 196.94243692 -179.84966059 195.24783159 -179.85351562 193.55322266 C-179.86319325 190.97655617 -179.89421039 188.40069714 -179.92578125 185.82421875 C-179.93231462 184.17448388 -179.93756378 182.52474333 -179.94140625 180.875 C-179.95992645 179.72931549 -179.95992645 179.72931549 -179.9788208 178.56048584 C-179.95220391 172.08114847 -178.57908017 167.42094943 -174.17578125 162.453125 C-165.70340913 156.0726487 -151.31288738 155.81321645 -141.15234375 154.09765625 C-131.44742124 152.49829237 -131.44742124 152.49829237 -123.4765625 147.0703125 C-121.04296665 143.32553398 -119.41351111 139.48098963 -117.80078125 135.328125 C-117.47658203 134.55082031 -117.15238281 133.77351562 -116.81835938 132.97265625 C-114.86521386 127.99569017 -114.11942485 124.51600342 -115.61328125 119.203125 C-117.1943135 116.03967441 -117.1943135 116.03967441 -119.36328125 112.953125 C-119.74871094 112.37393311 -120.13414063 111.79474121 -120.53125 111.19799805 C-121.87602016 109.18843594 -123.24227921 107.19488127 -124.61328125 105.203125 C-125.16822266 104.39504395 -125.72316406 103.58696289 -126.29492188 102.75439453 C-126.87951172 101.90345215 -127.46410156 101.05250977 -128.06640625 100.17578125 C-128.65325195 99.32081055 -129.24009766 98.46583984 -129.84472656 97.58496094 C-131.01091836 95.89073089 -132.18204098 94.19988287 -133.35839844 92.51269531 C-133.89625977 91.73635742 -134.43412109 90.96001953 -134.98828125 90.16015625 C-135.71144531 89.12338745 -135.71144531 89.12338745 -136.44921875 88.06567383 C-138.53935797 84.72136341 -138.82439807 81.74852187 -138.92578125 77.890625 C-138.98185547 76.50423828 -138.98185547 76.50423828 -139.0390625 75.08984375 C-138.14112093 69.00196468 -133.38322103 64.65637924 -129.18359375 60.4375 C-128.6707785 59.91802795 -128.15796326 59.39855591 -127.62960815 58.86334229 C-126.55143 57.7751057 -125.47058771 56.68950269 -124.38720703 55.60644531 C-122.73916057 53.95400667 -121.10779999 52.28620101 -119.4765625 50.6171875 C-118.42155502 49.55631409 -117.36559688 48.49638506 -116.30859375 47.4375 C-115.58641159 46.69376129 -115.58641159 46.69376129 -114.84963989 45.93499756 C-110.69481687 41.83490337 -106.96157592 40.46404663 -101.23828125 39.828125 C-93.87499169 40.58984461 -87.89854337 45.19382664 -81.98828125 49.390625 C-80.58925048 50.36039836 -79.18949667 51.32912937 -77.7890625 52.296875 C-75.7399387 53.71889013 -73.69484304 55.14517266 -71.66162109 56.58984375 C-69.84567279 57.8762387 -68.01330175 59.13531694 -66.17578125 60.390625 C-65.12519531 61.12667969 -64.07460937 61.86273438 -62.9921875 62.62109375 C-57.24282323 65.31299263 -52.13258824 64.90468072 -46.19140625 62.8828125 C-44.74191155 62.29779122 -43.29905605 61.69605339 -41.86328125 61.078125 C-41.13496094 60.79453125 -40.40664062 60.5109375 -39.65625 60.21875 C-34.87589876 58.22332208 -31.07514139 55.92505346 -28.61328125 51.203125 C-25.37665603 41.75907649 -24.16502377 31.55715492 -22.5078125 21.7421875 C-20.8924903 12.60584283 -19.23173278 6.7582459 -11.61328125 1.203125 C-7.73643703 -0.08915641 -4.04215281 0.02098102 0 0 Z M-35.61328125 151.203125 C-46.01312876 164.09104689 -50.9353516 179.6306939 -49.61328125 196.203125 C-46.42548623 214.4555285 -38.72228793 229.02540034 -23.61328125 240.140625 C-8.61580241 249.90088901 7.70230082 252.63345553 25.2578125 249.515625 C28.42663265 248.6026396 31.3681786 247.52762886 34.38671875 246.203125 C35.31355469 245.80222656 36.24039063 245.40132813 37.1953125 244.98828125 C52.13615116 237.67680701 62.86705254 224.88734247 68.38671875 209.36328125 C73.56719473 192.9921677 71.96541874 176.79062978 64.32421875 161.453125 C55.31632463 145.9726076 42.39109485 136.66076295 25.38671875 131.203125 C2.91818421 125.27445286 -20.57214043 134.24405631 -35.61328125 151.203125 Z " fill="#000000" transform="translate(183.61328125,5.796875)"/>
<path d="M0 0 C1.28455078 -0.02900391 2.56910156 -0.05800781 3.89257812 -0.08789062 C5.13072266 -0.09626953 6.36886719 -0.10464844 7.64453125 -0.11328125 C8.77866455 -0.12786377 9.91279785 -0.14244629 11.08129883 -0.1574707 C14.93323352 0.42533007 16.52169988 1.49676167 19.1875 4.3125 C20.16650391 6.8269043 20.16650391 6.8269043 20.6640625 9.63671875 C20.86 10.66603516 21.0559375 11.69535156 21.2578125 12.75585938 C21.44085938 13.82642578 21.62390625 14.89699219 21.8125 16 C23.55636865 30.11934941 23.55636865 30.11934941 31.1875 41.3125 C33.88790121 42.85728066 33.88790121 42.85728066 36.875 44.0625 C37.84824219 44.49046875 38.82148438 44.9184375 39.82421875 45.359375 C44.64545596 46.72567219 49.39244359 47.50902948 54.13452148 45.47900391 C56.03106411 44.32855471 57.79002178 43.0832462 59.5625 41.75 C60.86306728 40.83563308 62.16385018 39.92157278 63.46484375 39.0078125 C64.70718799 38.11139331 65.94815102 37.21305576 67.1875 36.3125 C69.15144093 34.89532415 71.12887314 33.49646963 73.125 32.125 C73.91777344 31.55394531 74.71054687 30.98289062 75.52734375 30.39453125 C79.39126518 28.82286277 82.37055486 28.78394011 86.1875 30.3125 C89.69061236 32.96249407 92.62916096 36.04805901 95.625 39.25 C96.43904297 40.08724609 97.25308594 40.92449219 98.09179688 41.78710938 C104.94582543 48.89266192 104.94582543 48.89266192 105.6875 53.25 C105.55779524 60.23964551 99.74521898 66.2278096 95.75390625 71.59375 C89.96903947 78.94209656 89.96903947 78.94209656 87.6484375 87.71484375 C88.74396766 92.99402896 90.88686665 97.9498232 93.1328125 102.8359375 C93.40625488 103.43325684 93.67969727 104.03057617 93.96142578 104.64599609 C97.14865006 108.97813328 101.80324439 109.85413185 106.84375 110.7421875 C108.11347656 110.98066406 109.38320313 111.21914063 110.69140625 111.46484375 C112.69132784 111.82967109 114.69196338 112.18827629 116.69482422 112.53662109 C118.64339957 112.87964307 120.58743229 113.24815815 122.53125 113.6171875 C124.26665039 113.9263208 124.26665039 113.9263208 126.03710938 114.24169922 C129.95224939 115.57243419 131.69848625 117.01842753 134.1875 120.3125 C134.81860352 123.46289062 134.81860352 123.46289062 134.81640625 126.96875 C134.81833984 128.23847656 134.82027344 129.50820313 134.82226562 130.81640625 C134.79841797 132.13511719 134.77457031 133.45382812 134.75 134.8125 C134.76095703 136.13121094 134.77191406 137.44992187 134.78320312 138.80859375 C134.70988273 148.43800606 134.70988273 148.43800606 132.50073242 152.13623047 C129.8009732 154.67614115 128.2341104 155.17895259 124.609375 155.7890625 C123.53042969 155.985 122.45148438 156.1809375 121.33984375 156.3828125 C120.21707031 156.56585938 119.09429687 156.74890625 117.9375 156.9375 C105.41234873 158.50942528 105.41234873 158.50942528 94.86328125 164.640625 C93.1353524 167.39564443 91.6796904 170.0826029 90.375 173.0625 C89.93542969 174.02671875 89.49585938 174.9909375 89.04296875 175.984375 C87.56562209 181.73186062 87.85139078 185.91459706 90.77856445 191.16796875 C92.86459629 194.31516363 95.02911458 197.38401962 97.25 200.4375 C98.7558399 202.51266765 100.24734585 204.59833043 101.72265625 206.6953125 C102.386604 207.60684082 103.05055176 208.51836914 103.73461914 209.45751953 C105.52382919 212.97340297 105.52765624 215.41624415 105.1875 219.3125 C104.078125 221.32421875 104.078125 221.32421875 102.4375 223 C101.80972656 223.65484375 101.18195313 224.3096875 100.53515625 224.984375 C99.37306641 226.13679688 99.37306641 226.13679688 98.1875 227.3125 C97.16431404 228.35834826 96.14225387 229.40529864 95.12109375 230.453125 C85.55312847 240.19555137 85.55312847 240.19555137 80.92895508 240.59155273 C76.64896379 240.27233381 74.81894457 239.27455736 71.32421875 236.84765625 C70.27298828 236.13029297 69.22175781 235.41292969 68.13867188 234.67382812 C67.06166016 233.91521484 65.98464844 233.15660156 64.875 232.375 C63.76862262 231.61111519 62.66120834 230.84872989 61.55273438 230.08789062 C59.53200098 228.69793521 57.51608754 227.30092843 55.5065918 225.89477539 C51.49205682 223.15572905 49.08683501 223.01223432 44.1875 223.3125 C40.53982989 224.43128336 40.53982989 224.43128336 37 226.0625 C35.81019531 226.57296875 34.62039063 227.0834375 33.39453125 227.609375 C29.4556793 229.70114047 26.80751749 231.51121365 25.32202148 235.8269043 C25.15259033 236.75414307 24.98315918 237.68138184 24.80859375 238.63671875 C24.60943359 239.66603516 24.41027344 240.69535156 24.20507812 241.75585938 C24.01365234 242.82642578 23.82222656 243.89699219 23.625 245 C20.00922291 264.46314332 20.00922291 264.46314332 16.49755859 268.02807617 C12.01661066 270.51954384 6.78240696 269.83059746 1.77026367 269.81347656 C-0.24120326 269.81250425 -2.24884935 269.85413877 -4.25976562 269.8984375 C-6.17112305 269.90230469 -6.17112305 269.90230469 -8.12109375 269.90625 C-9.28439209 269.91333984 -10.44769043 269.92042969 -11.64624023 269.92773438 C-15.8497858 269.11094551 -17.24912154 267.70513941 -19.8125 264.3125 C-20.86743164 261.0703125 -20.86743164 261.0703125 -21.47265625 257.4375 C-21.64757851 256.46707764 -21.64757851 256.46707764 -21.82603455 255.47705078 C-22.19451044 253.42496015 -22.53718048 251.36984262 -22.875 249.3125 C-23.21805697 247.25560669 -23.56711958 245.20061365 -23.93467712 243.14794922 C-24.2675082 241.28621657 -24.57787356 239.4205087 -24.88696289 237.5546875 C-26.31363779 232.55699752 -28.52434752 230.03581095 -33.01953125 227.51171875 C-34.20933594 227.01285156 -35.39914062 226.51398438 -36.625 226 C-37.80707031 225.48824219 -38.98914063 224.97648438 -40.20703125 224.44921875 C-44.61498568 223.05949531 -48.45343555 222.51438661 -52.90234375 224.01953125 C-60.25328024 228.41766027 -67.25515561 233.3423661 -74.25952148 238.26855469 C-77.89600899 240.71307923 -80.434474 240.87740658 -84.8125 240.3125 C-87.86202031 238.37599027 -90.2750228 235.8675376 -92.8125 233.3125 C-93.77202172 232.38655147 -94.73304485 231.46215707 -95.6953125 230.5390625 C-104.82870163 221.66862227 -104.82870163 221.66862227 -105.8125 218.3125 C-105.43366748 213.05927758 -104.30563124 209.93143238 -101.21484375 205.6953125 C-100.13686523 204.16583984 -100.13686523 204.16583984 -99.03710938 202.60546875 C-97.51473238 200.4967621 -95.98609238 198.39256264 -94.45117188 196.29296875 C-89.23171381 188.99532597 -89.23171381 188.99532597 -88.37231445 180.34960938 C-89.08509404 177.05097774 -90.09437483 174.09607571 -91.4375 171 C-92.16839844 169.24236328 -92.16839844 169.24236328 -92.9140625 167.44921875 C-95.7895077 162.69822596 -98.38529506 160.93536084 -103.63525391 159.58813477 C-107.01888496 158.904524 -110.40639627 158.31076098 -113.8125 157.75 C-128.5168799 155.28025105 -128.5168799 155.28025105 -132.8125 152.3125 C-136.15269338 147.19057925 -135.22220105 140.8185225 -135.25 134.9375 C-135.28287109 133.71804688 -135.31574219 132.49859375 -135.34960938 131.2421875 C-135.37989308 126.19857442 -135.24678108 122.31123977 -133.22265625 117.65625 C-128.60596451 113.32241364 -120.84984 113.14128634 -114.8125 112.1875 C-112.755497 111.85190914 -110.70065407 111.50896732 -108.64794922 111.14797974 C-106.78648445 110.82202057 -104.92063958 110.52137238 -103.0546875 110.22216797 C-98.2272418 108.86772048 -95.64433827 106.644163 -93.01171875 102.4296875 C-92.51285156 101.35976563 -92.01398438 100.28984375 -91.5 99.1875 C-90.98824219 98.13304687 -90.47648437 97.07859375 -89.94921875 95.9921875 C-88.07786788 89.93441251 -87.35632876 85.18868204 -90.30688477 79.36083984 C-92.35460022 76.17674507 -94.51042908 73.11455756 -96.75 70.0625 C-98.24750959 67.98056523 -99.73616326 65.89222494 -101.21484375 63.796875 C-101.87991943 62.88647461 -102.54499512 61.97607422 -103.23022461 61.03808594 C-104.97934554 58.02509627 -105.55115722 55.77246414 -105.8125 52.3125 C-103.86289849 46.51850355 -99.65095736 42.73596557 -95.375 38.5625 C-94.70662109 37.89089844 -94.03824219 37.21929687 -93.34960938 36.52734375 C-86.09266699 29.3495157 -86.09266699 29.3495157 -80.203125 29.25390625 C-74.40882668 30.16815953 -70.1514075 33.81512785 -65.5625 37.25 C-63.80881327 38.53203191 -62.05366027 39.81206111 -60.296875 41.08984375 C-59.53084961 41.65952881 -58.76482422 42.22921387 -57.97558594 42.81616211 C-53.32197901 46.0353446 -49.48646483 47.31021553 -43.8125 46.3125 C-33.42893849 42.84867295 -33.42893849 42.84867295 -25.8125 35.3125 C-24.79678926 32.13314748 -24.79678926 32.13314748 -24.25 28.65625 C-24.01023437 27.38652344 -23.77046875 26.11679687 -23.5234375 24.80859375 C-23.28475335 23.47686696 -23.04778879 22.14483088 -22.8125 20.8125 C-22.35008183 18.1940412 -21.86843646 15.58184095 -21.375 12.96875 C-21.17003906 11.81181641 -20.96507812 10.65488281 -20.75390625 9.46289062 C-19.70241859 5.94411555 -18.32005348 3.96741452 -15.8125 1.3125 C-11.25904686 -0.96422657 -4.9989445 0.03728701 0 0 Z M-36.8125 102.3125 C-47.18762918 114.15706807 -49.73947068 126.6394793 -49.0078125 142.03173828 C-48.24158414 150.97936994 -44.18528725 158.31569646 -38.8125 165.3125 C-38.37292969 165.92738281 -37.93335938 166.54226563 -37.48046875 167.17578125 C-30.02317972 176.86810791 -17.66053236 182.3470987 -5.8125 184.3125 C6.986413 185.36391149 19.51575384 182.1384125 29.78515625 174.33984375 C40.84421942 164.88209289 48.2056556 153.15901608 49.42578125 138.4375 C49.79464695 122.90631258 44.30308377 109.93709711 33.77734375 98.67578125 C12.53656426 79.2931695 -17.42284439 82.31901429 -36.8125 102.3125 Z " fill="#000000" transform="translate(368.8125,232.6875)"/>
</svg>
