<?xml version="1.0" encoding="UTF-8"?>
<svg version="1.1" xmlns="http://www.w3.org/2000/svg" width="512" height="512">
<path d="M0 0 C1.24511048 -0.00644889 2.49022095 -0.01289778 3.77306205 -0.0195421 C5.15200835 -0.01659992 6.53095424 -0.01346449 7.90989971 -0.01015663 C9.37694476 -0.01389326 10.84398781 -0.01849483 12.31102771 -0.02388728 C16.34326914 -0.03613118 20.3754277 -0.03585518 24.40768349 -0.03349853 C28.75613221 -0.03309071 33.10455423 -0.04412614 37.45299053 -0.05361366 C45.97279326 -0.07023227 54.49256831 -0.0757236 63.01238588 -0.07683842 C69.93725989 -0.07778849 76.86212477 -0.08189672 83.78699589 -0.08823967 C103.41709459 -0.10585444 123.04717142 -0.11507817 142.67727808 -0.11357872 C143.7357197 -0.11349881 144.79416132 -0.1134189 145.88467693 -0.11333656 C147.47427623 -0.11321392 147.47427623 -0.11321392 149.09598865 -0.1130888 C166.27186473 -0.11227584 183.44765313 -0.13141549 200.62350384 -0.1596133 C218.25642052 -0.18833322 235.88929443 -0.20215408 253.5222351 -0.20042574 C263.42304797 -0.19976153 273.32376892 -0.20526744 283.22456074 -0.22678185 C291.65418933 -0.2449819 300.08368434 -0.24935065 308.51332406 -0.235763 C312.81408433 -0.22922739 317.11458824 -0.22913742 321.41532421 -0.2464695 C325.35401724 -0.26217926 329.29225018 -0.25935832 333.23093184 -0.24190123 C334.65420133 -0.23882669 336.07750498 -0.24248093 337.50073419 -0.25362138 C346.55944028 -0.3198213 353.00607824 0.09076173 360.08951092 6.18695641 C365.53392346 12.67336178 367.40784065 17.85616458 367.22232342 26.37836266 C366.37988141 32.84586018 363.26960062 38.25924913 358.59732342 42.75726891 C354.84732342 45.25726891 354.84732342 45.25726891 345.84732342 47.25726891 C345.84732342 108.30726891 345.84732342 169.35726891 345.84732342 232.25726891 C348.15732342 232.58726891 350.46732342 232.91726891 352.84732342 233.25726891 C358.95330351 236.31025895 362.85502263 241.23413984 365.84732342 247.25726891 C367.87489849 253.33999413 367.67998537 260.0266114 365.34732342 266.00726891 C362.44066149 271.7688728 357.76010743 275.73467726 352.09732342 278.69476891 C349.84732342 279.25726891 349.84732342 279.25726891 345.84732342 279.25726891 C345.84732342 340.63726891 345.84732342 402.01726891 345.84732342 465.25726891 C348.81732342 465.91726891 351.78732342 466.57726891 354.84732342 467.25726891 C360.29338141 470.34365342 364.00592144 474.98608872 366.22232342 480.80414391 C368.02820932 487.89224605 367.55316394 494.6348377 364.24966717 501.18305016 C360.64802946 506.51026359 355.92046639 510.21054104 349.84732342 512.25726891 C346.95285386 512.51026857 346.95285386 512.51026857 343.69464684 512.51453781 C342.44953636 512.5209867 341.20442588 512.5274356 339.92158478 512.53407991 C338.54263849 512.53113773 337.16369259 512.5280023 335.78474712 512.52469444 C334.31770208 512.52843107 332.85065902 512.53303264 331.38361913 512.53842509 C327.35137769 512.55066899 323.31921914 512.55039299 319.28696334 512.54803634 C314.93851463 512.54762852 310.59009261 512.55866395 306.2416563 512.56815147 C297.72185358 512.58477008 289.20207853 512.59026141 280.68226095 512.59137623 C273.75738694 512.5923263 266.83252207 512.59643453 259.90765095 512.60277748 C240.27755224 512.62039225 220.64747542 512.62961598 201.01736876 512.62811653 C199.95892713 512.62803662 198.90048551 512.62795671 197.8099699 512.62787437 C196.2203706 512.62775173 196.2203706 512.62775173 194.59865818 512.62762661 C177.4227821 512.62681365 160.24699371 512.6459533 143.07114299 512.67415111 C125.43822631 512.70287103 107.80535241 512.71669189 90.17241174 512.71496356 C80.27159887 512.71429934 70.37087792 512.71980525 60.4700861 512.74131966 C52.04045751 512.75951971 43.6109625 512.76388847 35.18132278 512.75030081 C30.88056251 512.74376521 26.5800586 512.74367523 22.27932262 512.76100731 C18.3406296 512.77671707 14.40239665 512.77389613 10.46371499 512.75643905 C9.0404455 512.7533645 7.61714186 512.75701874 6.19391265 512.7681592 C-2.86479344 512.83435911 -9.3114314 512.42377608 -16.39486408 506.32758141 C-21.83927663 499.84117603 -23.71319382 494.65837323 -23.52767658 486.13617516 C-22.68523457 479.66867763 -19.57495379 474.25528868 -14.90267658 469.75726891 C-11.15267658 467.25726891 -11.15267658 467.25726891 -2.15267658 465.25726891 C-2.15267658 403.87726891 -2.15267658 342.49726891 -2.15267658 279.25726891 C-4.46267658 278.92726891 -6.77267658 278.59726891 -9.15267658 278.25726891 C-15.08498411 275.10951389 -19.53219095 270.49824017 -22.52767658 264.50726891 C-24.09342118 256.365397 -23.8235635 249.8153082 -19.71127033 242.48773766 C-16.316536 237.62960908 -11.95887871 233.82651272 -6.15267658 232.25726891 C-4.83267658 232.25726891 -3.51267658 232.25726891 -2.15267658 232.25726891 C-2.15267658 171.20726891 -2.15267658 110.15726891 -2.15267658 47.25726891 C-5.12267658 46.59726891 -8.09267658 45.93726891 -11.15267658 45.25726891 C-16.59873457 42.17088439 -20.3112746 37.5284491 -22.52767658 31.71039391 C-24.33356248 24.62229176 -23.8585171 17.87970011 -20.55502033 11.33148766 C-15.51261765 3.8732263 -8.97138929 0.01175525 0 0 Z M107.84732342 156.25726891 C109.13840533 159.64729612 110.60513883 162.77887722 112.39419842 165.93305016 C112.90192791 166.83064049 113.4096574 167.72823082 113.93277264 168.65302086 C114.48207439 169.61554771 115.03137615 170.57807457 115.59732342 171.56976891 C116.46188152 173.09186974 116.46188152 173.09186974 117.34390545 174.64472008 C121.98870848 182.80103433 126.7042137 190.91539806 131.44693279 199.01508141 C134.64760427 204.4815571 137.83395325 209.95574727 140.99576092 215.44476891 C141.33964855 216.0417408 141.68353619 216.63871269 142.03784466 217.25377464 C143.71020157 220.15804727 145.38079845 223.06331602 147.04996014 225.96942711 C147.64824627 227.00929771 148.2465324 228.04916832 148.86294842 229.12055016 C149.65620525 230.50174034 149.65620525 230.50174034 150.46548748 231.91083336 C151.53557153 233.72789657 152.67760306 235.50268836 153.84732342 237.25726891 C155.67263592 236.76226891 155.67263592 236.76226891 157.53482342 236.25726891 C166.86322282 234.20061392 175.67373008 234.99733205 184.84732342 237.25726891 C192.04847326 224.94362168 199.22746996 212.61811262 206.34732342 200.25726891 C211.40771718 191.47297662 216.48893324 182.70124505 221.59732342 173.94476891 C222.18191326 172.94252281 222.76650311 171.94027672 223.36880779 170.90765953 C227.75788152 163.3916954 227.75788152 163.3916954 229.58658123 160.64325523 C230.00262615 159.85587975 230.41867107 159.06850426 230.84732342 158.25726891 C230.10742665 154.94034739 230.10742665 154.94034739 226.66372967 153.39008141 C225.25322265 152.70522465 223.83454715 152.03703689 222.40982342 151.38226891 C221.65354656 151.03148277 220.89726971 150.68069664 220.11807537 150.31928062 C184.77310637 134.49643251 141.12381884 135.98951144 107.84732342 156.25726891 Z M154.53482342 252.81976891 C150.64722024 257.56448145 150.44158793 261.03411365 150.50747967 267.14008141 C151.09527248 272.53156034 153.31592247 276.14981618 157.45669842 279.59711266 C162.21292387 282.66247814 167.29222708 283.84297443 172.88638592 282.92133141 C178.84886737 281.14870179 182.25077897 277.16733394 185.84732342 272.25726891 C188.23566725 267.48058125 187.36377038 260.86736825 185.78482342 255.94476891 C182.63597926 251.57701733 179.00662158 247.97703496 173.84732342 246.25726891 C165.65000991 245.52360229 160.14262203 246.45630949 154.53482342 252.81976891 Z M44.84732342 265.25726891 C44.84732342 298.49655791 57.10198976 327.17397445 79.84732342 351.25726891 C80.58337811 352.06937828 81.31943279 352.88148766 82.07779217 353.71820641 C89.12753785 361.204871 97.28378095 366.66865434 105.84732342 372.25726891 C108.69284382 368.84893244 111.02943943 365.42259906 113.21060467 361.55805016 C113.84256756 360.44430016 114.47453045 359.33055016 115.12564373 358.18305016 C115.45681194 357.59475426 115.78798016 357.00645836 116.12918377 356.40033531 C117.1792794 354.53521224 118.23469417 352.67319422 119.29165936 350.81195641 C120.757001 348.23147978 122.22085357 345.65016805 123.6837492 343.06830406 C126.96426408 337.2841468 130.27773788 331.51908697 133.59732342 325.75726891 C134.20745281 324.69467857 134.81758221 323.63208824 135.44620037 322.5372982 C138.39340575 317.42399357 141.3847902 312.34798818 144.48794842 307.32758141 C145.05545818 306.40525719 145.62296795 305.48293297 146.20767498 304.53265953 C147.27128346 302.813402 148.34556185 301.1006823 149.43228436 299.39594078 C149.89924725 298.64119469 150.36621014 297.88644859 150.84732342 297.10883141 C151.25982342 296.45737144 151.67232342 295.80591148 152.09732342 295.13471031 C153.06007266 292.72470327 152.8464787 291.62965047 151.84732342 289.25726891 C150.93982342 288.55601891 150.03232342 287.85476891 149.09732342 287.13226891 C142.20436065 281.73057212 140.66049681 273.41654916 138.84732342 265.25726891 C107.82732342 265.25726891 76.80732342 265.25726891 44.84732342 265.25726891 Z M199.84732342 265.25726891 C198.85732342 269.21726891 197.86732342 273.17726891 196.84732342 277.25726891 C193.72758582 282.68289951 191.08029245 286.71731926 185.84732342 290.25726891 C187.11154434 294.39216673 188.65209902 297.95666701 190.83169842 301.68695641 C191.42982342 302.71691734 192.02794842 303.74687828 192.64419842 304.80805016 C193.28872967 305.90504234 193.93326092 307.00203453 194.59732342 308.13226891 C195.27490963 309.29473634 195.95198468 310.45750187 196.62857342 311.62055016 C198.36277081 314.5987656 200.10324905 317.57325516 201.84561443 320.54669762 C203.37551692 323.15924008 204.90043848 325.77468082 206.42544842 328.39008141 C208.13065966 331.31433728 209.83626919 334.23835106 211.54410076 337.1610775 C218.36099126 348.83139245 225.10409216 360.54429046 231.84732342 372.25726891 C260.40942491 356.98277073 279.93467702 330.02472361 289.37076092 299.48773766 C292.74647823 287.92749817 293.84732342 277.42635307 293.84732342 265.25726891 C262.82732342 265.25726891 231.80732342 265.25726891 199.84732342 265.25726891 Z " fill="#000000" transform="translate(84.15267658233643,-0.25726890563964844)"/>
</svg>
