<?xml version="1.0" encoding="UTF-8"?>
<svg version="1.1" xmlns="http://www.w3.org/2000/svg" width="512" height="512">
<path d="M0 0 C6.7297488 12.6918645 13.31629453 25.44669605 19.76171875 38.28515625 C20.41178863 39.57918271 20.41178863 39.57918271 21.07499123 40.89935112 C23.35200134 45.43281621 25.62656761 49.96749766 27.89916992 54.50317383 C30.2440003 59.18159754 32.59817094 63.85526051 34.95419598 68.52805424 C36.77377866 72.14121671 38.58635137 75.75786144 40.39698219 79.37551689 C41.2631187 81.10291213 42.13196269 82.82895253 43.00354576 84.55360603 C44.20996177 86.94231144 45.40636745 89.33577023 46.6003418 91.73071289 C46.96225616 92.44173157 47.32417053 93.15275024 47.697052 93.88531494 C48.52604158 95.5612412 49.27220662 97.27771392 50 99 C49.67 99.66 49.34 100.32 49 101 C27.34641684 88.71367995 27.34641684 88.71367995 17.53295898 82.67993164 C15.02744432 81.15124689 12.79846036 79.93282012 10 79 C9.60192139 80.30215454 9.60192139 80.30215454 9.19580078 81.63061523 C8.01355452 84.96180769 6.58923669 87.82732519 4.8671875 90.91015625 C3.91658447 92.62162842 3.91658447 92.62162842 2.94677734 94.36767578 C2.25623238 95.59931048 1.56563871 96.83091787 0.875 98.0625 C0.16173602 99.34328883 -0.55098286 100.62438135 -1.26318359 101.90576172 C-2.7501682 104.58012112 -4.23951386 107.25314513 -5.73046875 109.92529297 C-9.03945564 115.86040637 -12.31869538 121.81192 -15.59857178 127.76315308 C-16.59637148 129.57307049 -17.59513641 131.38245152 -18.59423828 133.19165039 C-19.21540527 134.31692139 -19.83657227 135.44219238 -20.4765625 136.6015625 C-21.282146 138.06070068 -21.282146 138.06070068 -22.10400391 139.54931641 C-24.74727732 144.36003317 -27.37154711 149.1811697 -30 154 C21.48 154.33 72.96 154.66 126 155 C126 189.98 126 224.96 126 261 C89.53918838 261.08060607 89.53918838 261.08060607 74.234375 261.09765625 C63.67608696 261.10951322 53.11783089 261.12343551 42.55957031 261.15087891 C34.86928974 261.17085816 27.17903516 261.18372719 19.48872936 261.18817699 C15.41948723 261.1907767 11.35031945 261.19685615 7.28110123 261.21146011 C3.44473635 261.2251158 -0.39152412 261.22920662 -4.227911 261.22621536 C-5.62986635 261.22676197 -7.03182548 261.2306916 -8.43375969 261.23841095 C-24.28194834 261.32133518 -37.9150698 258.85438623 -49.72290039 247.40063477 C-58.21195394 238.45104074 -64.33779843 227.78231661 -70.5 217.1875 C-71.29749632 215.82707466 -72.09567189 214.46704727 -72.89453125 213.10742188 C-74.08695601 211.07754243 -75.27871599 209.04730042 -76.467453 207.01525879 C-79.16177081 202.41155697 -81.89238217 197.8310496 -84.64453125 193.26171875 C-88.56072919 186.75522556 -92.39869122 180.20666039 -96.1875 173.625 C-96.82187988 172.52430176 -97.45625977 171.42360352 -98.10986328 170.28955078 C-103.17789559 161.47476321 -108.18225648 152.62506847 -113.11816406 143.7355957 C-115.66265996 139.15337165 -118.2224127 134.58984133 -120.91015625 130.08984375 C-121.55815186 128.9908374 -121.55815186 128.9908374 -122.21923828 127.86962891 C-122.99932021 126.55240038 -123.792178 125.24260404 -124.60107422 123.94287109 C-127.04414892 119.78531698 -127.1325947 117.61601058 -126 113 C-124.6081543 109.9140625 -124.6081543 109.9140625 -122.82421875 106.625 C-122.50321701 106.02757996 -122.18221527 105.43015991 -121.85148621 104.81463623 C-120.80498885 102.87188287 -119.74642754 100.93600161 -118.6875 99 C-117.95320546 97.64264907 -117.21965141 96.28489731 -116.48681641 94.92675781 C-114.66568603 91.55682406 -112.83467881 88.19239596 -110.99908447 84.83032227 C-109.58373966 82.23741127 -108.1730241 79.64198633 -106.76171875 77.046875 C-104.85232786 73.54039459 -102.93726024 70.03708197 -101.01953125 66.53515625 C-96.90863255 59.01662944 -92.85840978 51.46528353 -88.80615234 43.91503906 C-85.58380074 37.91686841 -82.32829895 31.94009563 -79 26 C-86.69503689 20.70593392 -94.68538936 15.95644047 -102.73779297 11.22998047 C-104.41119215 10.24637942 -106.08066604 9.25610972 -107.75 8.265625 C-108.73484375 7.68586914 -109.7196875 7.10611328 -110.734375 6.50878906 C-113 5 -113 5 -114 3 C-32.34909357 -0.23728262 -32.34909357 -0.23728262 0 0 Z " fill="#000000" transform="translate(127,211)"/>
<path d="M0 0 C9.93237806 -0.42157415 19.86307793 -0.72577321 29.8021946 -0.93546867 C35.55787428 -1.06112469 41.3033027 -1.23760876 47.0534668 -1.52270508 C85.66950621 -3.3857458 85.66950621 -3.3857458 93.61978149 2.95349121 C99.3277714 8.57417979 102.19551289 15.70768435 104.76208496 23.18621826 C106.78714277 28.48183923 109.90813447 32.95893386 113.08935547 37.61865234 C114.23524043 39.39913226 115.37650887 41.18259968 116.51123047 42.97021484 C117.08164062 43.86385742 117.65205078 44.7575 118.23974609 45.67822266 C122.11122732 51.77739226 125.92258452 57.91441127 129.74023438 64.04736328 C133.93781628 70.78174952 138.21160787 77.45841565 142.58544922 84.07958984 C144.02685547 86.49365234 144.02685547 86.49365234 144.02685547 88.49365234 C144.82269043 88.03514893 145.61852539 87.57664551 146.43847656 87.10424805 C149.43784154 85.378034 152.43865393 83.65438898 155.44042969 81.93237305 C156.73071715 81.19150971 158.02044712 80.44967446 159.30957031 79.70678711 C166.77282811 75.40686041 174.25357847 71.21697717 182.02685547 67.49365234 C180.41568187 71.77150775 178.40731842 75.80720596 176.31591797 79.86474609 C175.95193909 80.57456131 175.58796021 81.28437653 175.21295166 82.01570129 C174.02867427 84.32228005 172.84055919 86.62685194 171.65185547 88.93115234 C171.24469299 89.7221936 170.83753052 90.51323486 170.41802979 91.32824707 C165.24713679 101.37024169 159.99464243 111.35492342 154.52124023 121.23608398 C148.96813654 131.3103836 143.7738459 141.57204305 138.55963135 151.82458496 C137.61990575 153.65275572 136.65811009 155.46772204 135.69140625 157.28173828 C134.03097213 160.3642194 134.03097213 160.3642194 132.93652344 163.18212891 C131.84507349 165.59358255 131.07945928 166.8257584 129.02685547 168.49365234 C126.47496033 168.84115601 126.47496033 168.84115601 123.25708008 168.76855469 C121.36624443 168.72606094 121.36624443 168.72606094 119.43721008 168.68270874 C110.4302442 168.32521902 101.43598983 167.7575667 92.44091797 167.18115234 C90.28618704 167.04625157 88.13143193 166.91173662 85.97665405 166.77758789 C80.35086848 166.42632092 74.72542332 166.0698706 69.10003662 165.71228027 C63.34146714 165.34716485 57.58258603 164.98703477 51.82373047 164.62646484 C40.55779781 163.92036179 29.29221903 163.20877361 18.02685547 162.49365234 C18.02685547 161.83365234 18.02685547 161.17365234 18.02685547 160.49365234 C18.80287109 160.06544189 19.57888672 159.63723145 20.37841797 159.19604492 C23.29427667 157.58566801 26.20901398 155.97329592 29.12304688 154.35961914 C30.37749517 153.66547393 31.63236814 152.97209556 32.88769531 152.27954102 C39.70971981 148.51519682 46.47179615 144.71347178 53.02685547 140.49365234 C51.28066154 135.42866878 48.48353517 131.04642389 45.71435547 126.49365234 C45.18310059 125.61427002 44.6518457 124.7348877 44.10449219 123.82885742 C39.80061591 116.7227355 35.42984509 109.65844862 31.04980469 102.59912109 C26.79554814 95.74128505 22.5552666 88.87513891 18.33935547 81.99365234 C17.73881348 81.02000732 17.13827148 80.0463623 16.51953125 79.04321289 C15.96120605 78.12967041 15.40288086 77.21612793 14.82763672 76.27490234 C14.33432861 75.47117187 13.84102051 74.66744141 13.33276367 73.83935547 C12.00233384 71.44960601 10.98584886 69.0524817 10.02685547 66.49365234 C9.36685547 66.49365234 8.70685547 66.49365234 8.02685547 66.49365234 C7.75695801 67.20706787 7.48706055 67.9204834 7.20898438 68.65551758 C6.01028556 71.53343449 4.62929927 74.18067841 3.11279297 76.90380859 C2.5248999 77.96164551 1.93700684 79.01948242 1.33129883 80.109375 C0.69458252 81.24681152 0.05786621 82.38424805 -0.59814453 83.55615234 C-1.26937012 84.75971934 -1.9405111 85.96333352 -2.61157227 87.16699219 C-8.02578965 96.8627816 -13.52941224 106.50687539 -19.05517578 116.1394043 C-23.45474772 123.81233941 -27.79432675 131.51663201 -32.09814453 139.24365234 C-37.22682424 148.44910538 -42.4998403 157.56025277 -47.84008789 166.64428711 C-52.93127577 175.34122206 -57.76702602 184.16591809 -62.54736328 193.03662109 C-64.27721257 196.24070619 -66.05586269 199.39650476 -67.97314453 202.49365234 C-71.67127809 201.09642125 -75.06910451 199.42800539 -78.52392578 197.50927734 C-79.60262939 196.91091064 -80.68133301 196.31254395 -81.79272461 195.69604492 C-82.95714734 195.04545514 -84.12145099 194.39465217 -85.28564453 193.74365234 C-85.88106049 193.41207123 -86.47647644 193.08049011 -87.0899353 192.73886108 C-96.54664961 187.47206773 -105.90973106 182.05718566 -115.23950195 176.56835938 C-122.85811139 172.10234359 -130.57179683 167.83568172 -138.34008789 163.63647461 C-145.6184626 159.70176471 -152.81664517 155.64588747 -159.97314453 151.49365234 C-159.38182597 147.60298552 -158.21399445 144.75628137 -156.27001953 141.34521484 C-155.70879395 140.35223389 -155.14756836 139.35925293 -154.56933594 138.33618164 C-153.96009277 137.27439697 -153.35084961 136.2126123 -152.72314453 135.11865234 C-152.0919873 134.00594971 -151.46083008 132.89324707 -150.81054688 131.74682617 C-149.50193625 129.44065739 -148.1905505 127.13606124 -146.87646484 124.83300781 C-145.14718945 121.79901232 -143.42820146 118.75958772 -141.71533203 115.71630859 C-135.52915937 104.72726693 -129.27986666 93.77477141 -123.0123291 82.83200073 C-118.23991927 74.49737464 -113.52401194 66.13290261 -108.84814453 57.74365234 C-104.11739693 49.2832557 -99.36419812 40.83617277 -94.53564453 32.43115234 C-93.98054199 31.44985352 -93.42543945 30.46855469 -92.85351562 29.45751953 C-85.34621097 16.48031743 -76.85581801 8.74797084 -62.32154846 4.36955261 C-52.01191425 1.67268224 -41.45661488 1.17829444 -30.85205078 0.97412109 C-27.93155165 0.90788313 -25.01118891 0.83638668 -22.09082031 0.76464844 C-21.30381587 0.74608575 -20.51681143 0.72752306 -19.70595837 0.70839787 C-13.13383103 0.54501023 -6.56803661 0.28081233 0 0 Z " fill="#000000" transform="translate(252.97314453125,8.50634765625)"/>
<path d="M0 0 C0.3810791 0.7120459 0.7621582 1.4240918 1.15478516 2.15771484 C18.71464202 34.97163346 18.71464202 34.97163346 36.46606445 67.68212891 C40.88486909 75.77293905 45.26266238 83.8855466 49.62426758 92.00732422 C52.37538105 97.12998211 55.13150977 102.24954542 57.91601562 107.35412598 C58.88522731 109.13137679 59.85233663 110.90975585 60.81884766 112.68847656 C62.03185125 114.91923677 63.24874949 117.14788526 64.47021484 119.37402344 C69.16407696 128.02459265 72.57009706 135.19988117 72.4375 145.1875 C72.42178955 146.44240234 72.42178955 146.44240234 72.40576172 147.72265625 C71.75751107 170.04651971 56.18604102 190.47281967 45 209 C44.1644458 210.38445312 44.1644458 210.38445312 43.31201172 211.796875 C39.8450697 217.53139532 36.35652841 223.25245268 32.85644531 228.96679688 C30.92895883 232.11607253 29.00745558 235.26895485 27.0859375 238.421875 C19.91717781 250.1565402 12.62966865 261.79305644 5.04711914 273.265625 C4.4721167 274.13703125 3.89711426 275.0084375 3.3046875 275.90625 C2.80952637 276.65197266 2.31436523 277.39769531 1.80419922 278.16601562 C-0.00340947 280.86797558 -0.00340947 280.86797558 -1.12588501 283.42434502 C-4.63698357 290.44143671 -4.63698357 290.44143671 -8.22387505 291.91134262 C-10.96791266 292.23304809 -13.55864886 292.23863455 -16.31982422 292.13525391 C-17.34482529 292.13671417 -18.36982635 292.13817444 -19.42588806 292.13967896 C-22.80433053 292.13272713 -26.17721291 292.05504064 -29.5546875 291.9765625 C-31.90020738 291.95790537 -34.2457663 291.94367353 -36.59133911 291.9336853 C-42.75732507 291.8955495 -48.92094561 291.79736092 -55.08599854 291.68664551 C-61.37992348 291.58424592 -67.6742317 291.53865471 -73.96875 291.48828125 C-86.31353787 291.38111543 -98.65657206 291.21050186 -111 291 C-110.99746216 292.21807343 -110.99492432 293.43614685 -110.99230957 294.69113159 C-110.99025648 296.31475823 -110.98826599 297.93838494 -110.98632812 299.56201172 C-110.98449524 300.36180954 -110.98266235 301.16160736 -110.98077393 301.98564148 C-110.97477103 308.7086754 -111.17773203 315.40963222 -111.5 322.125 C-111.54769531 323.18847656 -111.59539062 324.25195312 -111.64453125 325.34765625 C-111.75943974 327.8986247 -111.87789182 330.44936792 -112 333 C-112.66 333 -113.32 333 -114 333 C-115.52352827 330.35921766 -117.047052 327.71843269 -118.57055664 325.07763672 C-119.91732423 322.74328358 -121.26415607 320.40896765 -122.61108398 318.07470703 C-126.02377298 312.16021511 -129.43539406 306.24511559 -132.84375 300.328125 C-138.34831955 290.77472197 -143.85832811 281.22500592 -149.42358398 271.70678711 C-150.58692802 269.71549635 -151.74795176 267.72284798 -152.90649414 265.72875977 C-155.77132407 260.79815651 -158.6642468 255.88858809 -161.61328125 251.0078125 C-162.74233567 249.10946312 -163.87124804 247.21102924 -165 245.3125 C-165.53520264 244.44520264 -166.07040527 243.57790527 -166.62182617 242.68432617 C-170.0994124 236.77991396 -170.0994124 236.77991396 -169.671875 233.42578125 C-169.12015625 232.62527344 -168.5684375 231.82476562 -168 231 C-167.61134766 230.42000244 -167.22269531 229.84000488 -166.82226562 229.24243164 C-165.34435424 227.083279 -163.80495858 224.97930428 -162.25 222.875 C-161.67507813 222.08802734 -161.10015625 221.30105469 -160.5078125 220.49023438 C-158.67792059 217.98898602 -156.84000369 215.49381704 -155 213 C-153.82812226 211.40885619 -152.65624722 209.81771038 -151.484375 208.2265625 C-149.73528935 205.85308368 -147.98538823 203.48022282 -146.23339844 201.10888672 C-141.74748752 195.0329227 -137.31883576 188.91749883 -132.90771484 182.78710938 C-128.26798234 176.34829692 -123.56045595 169.96078364 -118.83496094 163.5847168 C-115.17821649 158.6395884 -111.62628356 153.65110425 -108.234375 148.51953125 C-107.82703125 148.01808594 -107.4196875 147.51664063 -107 147 C-106.34 147 -105.68 147 -105 147 C-105.11874946 151.73241403 -105.24302895 156.46463941 -105.37231445 161.19677734 C-105.41548205 162.80481067 -105.45716901 164.41288448 -105.49731445 166.02099609 C-105.55546006 168.33964205 -105.61902391 170.65808761 -105.68359375 172.9765625 C-105.70030624 173.68930328 -105.71701874 174.40204407 -105.73423767 175.13638306 C-105.85449603 179.23791879 -106.3184939 182.91096342 -107 187 C-78.29 187.33 -49.58 187.66 -20 188 C-26.86729401 174.83768648 -33.73037778 161.72094557 -40.875 148.71484375 C-44.23838414 142.57602745 -47.55936183 136.41470589 -50.875 130.25 C-51.75152222 128.62058472 -51.75152222 128.62058472 -52.64575195 126.95825195 C-53.83514284 124.74667985 -55.024351 122.53500947 -56.21337891 120.32324219 C-61.46988928 110.54575938 -66.73243941 100.77153369 -72 91 C-72.85754883 89.40865234 -72.85754883 89.40865234 -73.73242188 87.78515625 C-75.42412378 84.64753887 -77.11765102 81.51091846 -78.8125 78.375 C-79.34584961 77.38790039 -79.87919922 76.40080078 -80.42871094 75.38378906 C-84.02140833 68.75438039 -87.67998027 62.16552352 -91.4621582 55.64208984 C-94 51.21369781 -94 51.21369781 -94 49 C-93.35788574 48.6690332 -92.71577148 48.33806641 -92.05419922 47.99707031 C-77.87474468 40.67945445 -63.79036966 33.21737059 -49.80517578 25.53564453 C-43.83927991 22.26971894 -37.85153173 19.0438707 -31.86621094 15.8137207 C-26.94122293 13.15146686 -22.03032583 10.4679857 -17.14453125 7.734375 C-15.76322021 6.96395874 -15.76322021 6.96395874 -14.35400391 6.17797852 C-12.6175442 5.20736082 -10.88397855 4.23154145 -9.15380859 3.24975586 C-8.38504395 2.82057861 -7.6162793 2.39140137 -6.82421875 1.94921875 C-6.15479248 1.57112061 -5.48536621 1.19302246 -4.7956543 0.8034668 C-3 0 -3 0 0 0 Z " fill="#000000" transform="translate(440,170)"/>
</svg>
